<svg xmlns="http://www.w3.org/2000/svg" width="17.687" height="21.707" viewBox="0 0 17.687 21.707">
  <g id="Grupo_14960" data-name="Grupo 14960" transform="translate(-6740 -3365)">
    <path id="Sustracción_2" data-name="Sustracción 2" d="M9.4,19.447H1.34a1.367,1.367,0,0,1-.946-.394A1.348,1.348,0,0,1,0,18.107V1.34A1.367,1.367,0,0,1,.394.394l.02-.02A1.312,1.312,0,0,1,1.34,0h9.28a.322.322,0,0,1,.2.04.02.02,0,0,0,0,.014.023.023,0,0,0,.015.006.023.023,0,0,0,.005.014.023.023,0,0,0,.015.006l.02.019L14.62,3.842v.02l.02.02a.573.573,0,0,1,.04.2v8.97a4.46,4.46,0,0,0-5.282,6.4Zm1.6-18.029V3.054a.618.618,0,0,0,.177.414.538.538,0,0,0,.414.177h1.635Z" transform="translate(6740 3365)" fill="#aaa"/>
    <g id="signo-mas-en-circulo" transform="translate(6748.745 3377.765)">
      <g id="Grupo_4200" data-name="Grupo 4200" transform="translate(0)">
        <path id="Trazado_2130" data-name="Trazado 2130" d="M4.479,0A4.471,4.471,0,1,0,8.95,4.471,4.476,4.476,0,0,0,4.479,0Zm0,8.113A3.642,3.642,0,1,1,8.121,4.471,3.645,3.645,0,0,1,4.479,8.113Z" transform="translate(-0.008)" fill="#aaa"/>
        <path id="Trazado_2131" data-name="Trazado 2131" d="M73.857,71.421H72.185V69.749a.38.38,0,1,0-.76,0v1.672H69.753a.38.38,0,0,0,0,.76h1.672v1.672a.38.38,0,0,0,.76,0V72.181h1.672a.38.38,0,1,0,0-.76Z" transform="translate(-67.334 -67.33)" fill="#aaa"/>
      </g>
    </g>
  </g>
</svg>
