<svg xmlns="http://www.w3.org/2000/svg" width="25.341" height="31.101" viewBox="0 0 25.341 31.101">
  <g id="Grupo_4198" data-name="Grupo 4198" transform="translate(-6740 -3365)">
    <path id="Sustracción_2" data-name="Sustracción 2" d="M13.465,27.863H1.92A1.959,1.959,0,0,1,.564,27.3,1.931,1.931,0,0,1,0,25.943V1.92A1.962,1.962,0,0,1,.564.564L.593.536A1.883,1.883,0,0,1,1.92,0h13.3A.458.458,0,0,1,15.5.057a.027.027,0,0,0,.007.019.034.034,0,0,0,.022.009.03.03,0,0,0,.007.02.032.032,0,0,0,.021.008l.028.029L20.947,5.5v.029l.028.028a.826.826,0,0,1,.057.283V18.7a6.365,6.365,0,0,0-1.214-.267V6.408H16.684a2.083,2.083,0,0,1-1.468-.592,2.044,2.044,0,0,1-.622-1.469V1.157H1.948a.806.806,0,0,0-.48.2l-.028.028a.706.706,0,0,0-.226.508v24.08a.682.682,0,0,0,.2.508.814.814,0,0,0,.508.2H12.957a6.361,6.361,0,0,0,.507,1.185ZM15.753,2.032V4.376a.873.873,0,0,0,.254.593.773.773,0,0,0,.593.254h2.343ZM4.4,16.458a.429.429,0,0,1-.367-.141.718.718,0,0,1-.14-.452V12.026c0-.266.041-.4.14-.48a.7.7,0,0,1,.481-.141h1.3a3.46,3.46,0,0,1,.875.085,1.089,1.089,0,0,1,.536.283,1.939,1.939,0,0,1,.36.441l.007.011a1.632,1.632,0,0,1,.113.649,1.432,1.432,0,0,1-.48,1.157,2.145,2.145,0,0,1-1.383.4H4.912v1.412a.722.722,0,0,1-.141.451A.5.5,0,0,1,4.4,16.458Zm.508-4.291v1.525H5.59a1.9,1.9,0,0,0,.592-.085.718.718,0,0,0,.367-.255.929.929,0,0,0,.141-.423.7.7,0,0,0-.2-.536,1.4,1.4,0,0,0-.9-.226Zm9.259,4.262a.426.426,0,0,1-.367-.141.665.665,0,0,1-.141-.451V12.026a.664.664,0,0,1,.057-.367.339.339,0,0,1,.2-.2.94.94,0,0,1,.366-.113h2.371a.474.474,0,0,1,.367.113.41.41,0,0,1,0,.564.474.474,0,0,1-.367.113H14.68v1.27h1.665a.6.6,0,0,1,.339.113.361.361,0,0,1,.112.282.332.332,0,0,1-.112.283.446.446,0,0,1-.339.113H14.68v1.638a.722.722,0,0,1-.141.451A.584.584,0,0,1,14.171,16.43Zm-3.7-.085h-1.3a.794.794,0,0,1-.423-.085.352.352,0,0,1-.17-.226.843.843,0,0,1-.056-.4V12a.692.692,0,0,1,.141-.48.745.745,0,0,1,.48-.141h1.3a4,4,0,0,1,.875.085,1.95,1.95,0,0,1,.678.367,2.481,2.481,0,0,1,.79,2,3.614,3.614,0,0,1-.085.818,2.446,2.446,0,0,1-.254.678,2.508,2.508,0,0,1-.424.536,1.557,1.557,0,0,1-.423.283l-.02.007a3.354,3.354,0,0,1-.488.134A4.192,4.192,0,0,1,10.473,16.345Zm-.9-4.206v3.388h1.157a.845.845,0,0,0,.209-.038l.073-.019a1.164,1.164,0,0,0,.254-.141,1.93,1.93,0,0,0,.536-1.5,2.288,2.288,0,0,0-.226-1.1.873.873,0,0,0-.536-.48,2.215,2.215,0,0,0-.79-.113Z" transform="translate(6740 3365)" fill="#575757"/>
    <g id="signo-mas-en-circulo" transform="translate(6752.529 3383.289)">
      <g id="Grupo_4200" data-name="Grupo 4200" transform="translate(0)">
        <path id="Trazado_2130" data-name="Trazado 2130" d="M6.414,0A6.406,6.406,0,1,0,12.82,6.406,6.414,6.414,0,0,0,6.414,0Zm0,11.623a5.217,5.217,0,1,1,5.218-5.217A5.223,5.223,0,0,1,6.414,11.623Z" transform="translate(-0.008)" fill="#575757"/>
        <path id="Trazado_2131" data-name="Trazado 2131" d="M75.8,72.309H73.4v-2.4a.544.544,0,1,0-1.089,0v2.4h-2.4a.544.544,0,0,0,0,1.089h2.4v2.4a.545.545,0,0,0,1.089,0V73.4h2.4a.544.544,0,1,0,0-1.089Z" transform="translate(-66.452 -66.447)" fill="#575757"/>
      </g>
    </g>
  </g>
</svg>
