<svg xmlns="http://www.w3.org/2000/svg" width="22.441" height="16.407" viewBox="0 0 22.441 16.407">
  <g id="anadir" transform="translate(-7 -74)">
    <path id="Trazado_2127" data-name="Trazado 2127" d="M174.015,147.629a1.944,1.944,0,1,0-1.944-1.944A1.944,1.944,0,0,0,174.015,147.629Z" transform="translate(-157.638 -66.6)" fill="#aaa"/>
    <path id="Trazado_2128" data-name="Trazado 2128" d="M365.188,296.936h-1.576V295.36a.36.36,0,0,0-.72,0v1.576H361.36a.36.36,0,1,0,0,.72h1.531v1.531a.36.36,0,0,0,.72,0v-1.531h1.576a.36.36,0,1,0,0-.72Z" transform="translate(-338.06 -211.049)" fill="#aaa"/>
    <path id="Trazado_2129" data-name="Trazado 2129" d="M27.938,82.966V76.149A2.163,2.163,0,0,0,25.765,74H9.15A2.144,2.144,0,0,0,7,76.149V87a2.161,2.161,0,0,0,2.15,2.169h13.1a4.215,4.215,0,0,0,7.193-2.98A4.271,4.271,0,0,0,27.938,82.966ZM9.15,74.72H25.765a1.442,1.442,0,0,1,1.453,1.428v6.33a4.191,4.191,0,0,0-1.987-.5,4.281,4.281,0,0,0-.471.026l-3.018-2.137a.361.361,0,0,0-.461.037l-4.067,4-4.727-2.3a.35.35,0,0,0-.333.012L7.72,84.189v-8.04A1.422,1.422,0,0,1,9.15,74.72ZM7.72,87V85.022l4.628-2.688,4.322,2.112-4.077,4.008H9.15A1.44,1.44,0,0,1,7.72,87Zm17.5,2.677a3.49,3.49,0,1,1,3.49-3.49A3.49,3.49,0,0,1,25.225,89.682Z" transform="translate(0 0)" fill="#aaa"/>
  </g>
</svg>
