<svg xmlns="http://www.w3.org/2000/svg" width="30.438" height="22.253" viewBox="0 0 30.438 22.253">
  <g id="anadir" transform="translate(-7 -74)">
    <path id="Trazado_2127" data-name="Trazado 2127" d="M174.708,149.015a2.637,2.637,0,1,0-2.637-2.637A2.637,2.637,0,0,0,174.708,149.015Zm0-4.3a1.66,1.66,0,1,1-1.66,1.66A1.66,1.66,0,0,1,174.708,144.717Z" transform="translate(-154.99 -65.481)" fill="#575757"/>
    <path id="Trazado_2128" data-name="Trazado 2128" d="M366.68,297.626h-2.138v-2.138a.489.489,0,1,0-.977,0v2.138h-2.077a.489.489,0,1,0,0,.977h2.077v2.077a.489.489,0,0,0,.977,0V298.6h2.138a.489.489,0,0,0,0-.977Z" transform="translate(-332.38 -207.503)" fill="#575757"/>
    <path id="Trazado_2129" data-name="Trazado 2129" d="M35.4,86.161V76.914A2.934,2.934,0,0,0,32.452,74H9.916A2.908,2.908,0,0,0,7,76.914V91.64a2.931,2.931,0,0,0,2.916,2.942H27.682a5.717,5.717,0,0,0,9.756-4.042A5.793,5.793,0,0,0,35.4,86.161ZM9.916,74.977H32.452a1.956,1.956,0,0,1,1.97,1.938V85.5a5.685,5.685,0,0,0-2.695-.673,5.806,5.806,0,0,0-.639.035L27,81.964a.49.49,0,0,0-.626.05l-5.516,5.421-6.411-3.125a.474.474,0,0,0-.452.017L7.977,87.82V76.914a1.929,1.929,0,0,1,1.939-1.937ZM7.977,91.64V88.95L14.255,85.3l5.862,2.864L14.587,93.6H9.916A1.953,1.953,0,0,1,7.977,91.64Zm8,1.965L26.762,83l3.047,2.156A5.715,5.715,0,0,0,26.9,93.6ZM31.72,95.27a4.733,4.733,0,1,1,4.733-4.733A4.733,4.733,0,0,1,31.72,95.27Z" transform="translate(0 0)" fill="#575757"/>
  </g>
</svg>
