<svg id="camera" xmlns="http://www.w3.org/2000/svg" width="30.896" height="24.942" viewBox="0 0 30.896 24.942">
  <g id="Grupo_3949" data-name="Grupo 3949" transform="translate(0 0)">
    <g id="Grupo_3948" data-name="Grupo 3948" transform="translate(0 0)">
      <path id="Trazado_2042" data-name="Trazado 2042" d="M28.331,52.779H23.149L20.958,49.6a.6.6,0,0,0-.5-.261H10.435a.6.6,0,0,0-.5.261L7.747,52.779h-1.7v-1.81a.6.6,0,0,0-.6-.6H2.565a.6.6,0,0,0-.6.6v1.882A2.569,2.569,0,0,0,0,55.343V70.731A2.568,2.568,0,0,0,2.565,73.3H12.623a11.231,11.231,0,0,0,9.179,0h6.529A2.568,2.568,0,0,0,30.9,70.731V55.343A2.568,2.568,0,0,0,28.331,52.779ZM10.752,50.541h9.391L21.633,52.7a11.231,11.231,0,0,0-9.01.075H9.212ZM3.168,51.572H4.842v1.206H3.168Zm-.6,20.516a1.359,1.359,0,0,1-1.358-1.358V55.343a1.359,1.359,0,0,1,1.358-1.358h7.994a11.227,11.227,0,0,0,0,18.1H2.565Zm14.648.981A10.032,10.032,0,1,1,27.245,63.037,10.044,10.044,0,0,1,17.213,73.069Zm12.476-2.339h0a1.36,1.36,0,0,1-1.358,1.358H23.867a11.227,11.227,0,0,0,0-18.1h4.464a1.359,1.359,0,0,1,1.358,1.358Z" transform="translate(0 -49.334)" fill="#575757"/>
    </g>
  </g>
  <g id="Grupo_3951" data-name="Grupo 3951" transform="translate(2.235 17.309)">
    <g id="Grupo_3950" data-name="Grupo 3950" transform="translate(0 0)">
      <path id="Trazado_2043" data-name="Trazado 2043" d="M40.351,335.646H39.313v-2.689a.586.586,0,1,0-1.172,0v3.275a.586.586,0,0,0,.586.586h1.624a.586.586,0,0,0,0-1.172Z" transform="translate(-38.141 -332.371)" fill="#575757"/>
    </g>
  </g>
  <g id="Grupo_3953" data-name="Grupo 3953" transform="translate(2.235 15.424)">
    <g id="Grupo_3952" data-name="Grupo 3952">
      <path id="Trazado_2044" data-name="Trazado 2044" d="M38.727,304.554a.586.586,0,0,0-.586.586v.028a.586.586,0,0,0,1.172,0v-.028A.586.586,0,0,0,38.727,304.554Z" transform="translate(-38.141 -304.554)" fill="#575757"/>
    </g>
  </g>
  <g id="Grupo_3955" data-name="Grupo 3955" transform="translate(8.716 5.465)">
    <g id="Grupo_3954" data-name="Grupo 3954" transform="translate(0 0)">
      <path id="Trazado_2045" data-name="Trazado 2045" d="M147.618,130.217a8.565,8.565,0,1,0,8.565,8.565A8.575,8.575,0,0,0,147.618,130.217Zm0,15.959a7.393,7.393,0,1,1,7.393-7.394A7.4,7.4,0,0,1,147.618,146.176Z" transform="translate(-139.053 -130.217)" fill="#575757"/>
    </g>
  </g>
  <g id="Grupo_3957" data-name="Grupo 3957" transform="translate(18.554 7.387)">
    <g id="Grupo_3956" data-name="Grupo 3956" transform="translate(0 0)">
      <path id="Trazado_2046" data-name="Trazado 2046" d="M309.578,172.721a6.452,6.452,0,0,0-3.251-2.315.586.586,0,0,0-.352,1.117,5.291,5.291,0,0,1,3.713,5.067.586.586,0,1,0,1.172,0A6.431,6.431,0,0,0,309.578,172.721Z" transform="translate(-305.565 -170.378)" fill="#575757"/>
    </g>
  </g>
  <g id="Grupo_3959" data-name="Grupo 3959" transform="translate(16.63 7.035)">
    <g id="Grupo_3958" data-name="Grupo 3958" transform="translate(0 0)">
      <path id="Trazado_2047" data-name="Trazado 2047" d="M275.9,165.736h-.066a.586.586,0,0,0,0,1.172h.061a.586.586,0,0,0,0-1.172Z" transform="translate(-275.25 -165.736)" fill="#575757"/>
    </g>
  </g>
  <g id="Grupo_3961" data-name="Grupo 3961" transform="translate(3.273 5.547)">
    <g id="Grupo_3960" data-name="Grupo 3960" transform="translate(0 0)">
      <path id="Trazado_2048" data-name="Trazado 2048" d="M57.625,140.8a1.758,1.758,0,1,0,1.758,1.758A1.76,1.76,0,0,0,57.625,140.8Zm0,2.343a.586.586,0,1,1,.586-.586A.586.586,0,0,1,57.625,143.146Z" transform="translate(-55.867 -140.803)" fill="#575757"/>
    </g>
  </g>
</svg>
