<svg id="clock" xmlns="http://www.w3.org/2000/svg" width="117.727" height="113.007" viewBox="0 0 117.727 113.007">
  <g id="XMLID_386_" transform="translate(0 0)">
    <path id="XMLID_389_" d="M117.5,72.2a46.41,46.41,0,0,0-36.089-40.7V25.666a7.818,7.818,0,0,0-1.887-15.4H62.968a7.818,7.818,0,0,0-1.887,15.4v5.859A46.17,46.17,0,0,0,38.438,43.98a46.669,46.669,0,0,0-3.9,4.431c-.058,0-.115-.009-.174-.009H17.974a2.3,2.3,0,1,0,0,4.6H31.4a46.094,46.094,0,0,0-4.08,8.838H2.3a2.3,2.3,0,1,0,0,4.6H26.025a46.752,46.752,0,0,0-1.141,8.838H14.716a2.3,2.3,0,0,0,0,4.6H24.957a46.683,46.683,0,0,0,1.436,8.838H11.5a2.3,2.3,0,0,0,0,4.6H27.861A46.441,46.441,0,0,0,66.69,123.045q2.278.225,4.557.224a46.559,46.559,0,0,0,25.348-7.492,2.3,2.3,0,1,0-2.51-3.854,41.848,41.848,0,1,1,12.326-12.341,2.3,2.3,0,1,0,3.857,2.5A46.6,46.6,0,0,0,117.5,72.2ZM59.749,18.08a3.223,3.223,0,0,1,3.219-3.219H79.524a3.219,3.219,0,1,1,0,6.438H62.968A3.223,3.223,0,0,1,59.749,18.08ZM65.68,30.734V25.9H76.812v4.828A46.851,46.851,0,0,0,65.68,30.734Z" transform="translate(0 -10.262)" fill="#575757"/>
    <path id="XMLID_391_" d="M438.069,425.5a2.3,2.3,0,1,0,1.626.674A2.312,2.312,0,0,0,438.069,425.5Z" transform="translate(-335.57 -330.021)" fill="#575757"/>
    <path id="XMLID_394_" d="M190.542,144.609a35.67,35.67,0,1,0,35.67,35.67A35.71,35.71,0,0,0,190.542,144.609Zm0,66.741a31.071,31.071,0,1,1,31.071-31.071A31.106,31.106,0,0,1,190.542,211.35Z" transform="translate(-119.261 -113.718)" fill="#575757"/>
    <path id="XMLID_397_" d="M283.76,220.085l-11.389,11.389a7.128,7.128,0,0,0-6.312,0l-5.1-5.1a2.3,2.3,0,0,0-3.252,3.252l5.1,5.1a7.145,7.145,0,1,0,12.816,0l11.054-11.055h0l.334-.334a2.3,2.3,0,1,0-3.252-3.252Zm-14.545,20.343a2.546,2.546,0,1,1,2.546-2.546A2.549,2.549,0,0,1,269.215,240.428Z" transform="translate(-197.934 -171.32)" fill="#dd141d"/>
    <path id="XMLID_398_" d="M402.085,289.86h-2.13a2.3,2.3,0,1,0,0,4.6h2.13a2.3,2.3,0,1,0,0-4.6Z" transform="translate(-306.219 -225.57)" fill="#575757"/>
    <path id="XMLID_399_" d="M197.512,289.616h-2.13a2.3,2.3,0,1,0,0,4.6h2.13a2.3,2.3,0,0,0,0-4.6Z" transform="translate(-148.685 -225.382)" fill="#575757"/>
    <path id="XMLID_400_" d="M302.422,189.548a2.3,2.3,0,0,0,2.3-2.3v-2.13a2.3,2.3,0,0,0-4.6,0v2.13A2.3,2.3,0,0,0,302.422,189.548Z" transform="translate(-231.113 -143.142)" fill="#575757"/>
    <path id="XMLID_424_" d="M302.178,387.393a2.3,2.3,0,0,0-2.3,2.3v2.13a2.3,2.3,0,1,0,4.6,0v-2.13A2.3,2.3,0,0,0,302.178,387.393Z" transform="translate(-230.925 -300.676)" fill="#575757"/>
    <path id="XMLID_425_" d="M2.3,351.44a2.3,2.3,0,1,0,1.625,3.925A2.3,2.3,0,0,0,2.3,351.44Z" transform="translate(0 -272.99)" fill="#575757"/>
  </g>
</svg>
