<svg xmlns="http://www.w3.org/2000/svg" width="38" height="43" viewBox="0 0 38 43"><g><g><g><path fill="#939393" d="M30.5 32c.25 0 .5.25.5.5s-.25.5-.5.5h-16c-.25 0-.5-.25-.5-.5s.25-.5.5-.5z"/></g><g><path fill="#dd141d" d="M27.565 21.957c.35-.35.9-.35 1.25 0 .338.35.338.9 0 1.25l-5.237 5.238a.897.897 0 0 1-.638.262.9.9 0 0 1-.638-.262l-5.237-5.238a.876.876 0 0 1 0-1.25c.35-.35.9-.35 1.25 0l3.738 3.75V12.393c-.001-.487.4-.875.887-.875a.87.87 0 0 1 .875.875v13.313z"/></g></g><g opacity=".1"><g opacity=".1"><path fill="#a4a4a4" d="M36.087 37v2.12c0 1.202-.919 2.12-2.12 2.12h-21.2c.495-.635.707-1.342.707-2.12V37zM7.82 39.12V3.789c0-.777-.283-1.484-.707-2.12h23.32c1.201 0 2.12.919 2.12 2.12v31.8H12.06v3.533c0 1.201-.919 2.12-2.12 2.12-1.202 0-2.12-.919-2.12-2.12zM6.408 8.029h-4.24v-4.24c0-1.201.918-2.12 2.12-2.12 1.201 0 2.12.919 2.12 2.12zm27.559-4.24A3.5 3.5 0 0 0 30.434.255H4.288A3.5 3.5 0 0 0 .754 3.788v5.654h5.654V39.12a3.5 3.5 0 0 0 3.533 3.533h24.026A3.5 3.5 0 0 0 37.5 39.12v-3.534h-3.533z"/></g><g opacity=".1"><path fill="#a4a4a4" d="M25.487 22.868h5.653v1.413h-5.653z"/></g><g opacity=".1"><path fill="#a4a4a4" d="M9.234 22.868h14.84v1.413H9.234z"/></g><g opacity=".1"><path fill="#a4a4a4" d="M17.007 25.694H31.14v1.414H17.007z"/></g><g opacity=".1"><path fill="#a4a4a4" d="M9.234 25.694h6.36v1.414h-6.36z"/></g><g opacity=".1"><path fill="#a4a4a4" d="M21.954 31.348h9.186v1.413h-9.186z"/></g><g opacity=".1"><path fill="#a4a4a4" d="M9.234 31.348h11.307v1.413H9.234z"/></g><g opacity=".1"><path fill="#a4a4a4" d="M16.3 5.696l3.534-1.201 3.533 1.201V7.04c0 2.614-1.272 5.017-3.462 6.5h-.071l-.07-.07c-2.192-1.413-3.463-3.886-3.463-6.5zm2.686 8.975l.848.565.848-.565c2.544-1.696 4.098-4.594 4.098-7.632V4.707l-4.946-1.625-4.947 1.625v2.332c0 3.038 1.555 5.936 4.099 7.632z"/></g><g opacity=".1"><path fill="#a4a4a4" d="M21.954 7.392l-1.413-.141c-.142 1.201-.778 2.332-1.767 3.039l.777 1.2c1.343-.989 2.261-2.473 2.403-4.098z"/></g><g opacity=".1"><path fill="#a4a4a4" d="M13.474 28.521H31.14v1.413H13.474z"/></g><g opacity=".1"><path fill="#a4a4a4" d="M9.234 28.521h2.827v1.413H9.234z"/></g><g opacity=".1"><path fill="#a4a4a4" d="M17.007 20.041H31.14v1.414H17.007z"/></g><g opacity=".1"><path fill="#a4a4a4" d="M9.234 20.041h6.36v1.414h-6.36z"/></g><g opacity=".1"><path fill="#a4a4a4" d="M14.887 16.508h9.893v1.413h-9.893z"/></g></g></g></svg>