<svg xmlns="http://www.w3.org/2000/svg" width="36.746" height="42.399" viewBox="0 0 36.746 42.399">
  <g id="Grupo_7141" data-name="Grupo 7141" transform="translate(-32)" opacity="0.1">
    <path id="Trazado_3203" data-name="Trazado 3203" d="M65.212,3.533A3.5,3.5,0,0,0,61.679,0H35.533A3.5,3.5,0,0,0,32,3.533V9.186h5.653V38.866A3.5,3.5,0,0,0,41.186,42.4H65.212a3.5,3.5,0,0,0,3.533-3.533V35.332H65.212ZM37.653,7.773h-4.24V3.533a2.12,2.12,0,0,1,4.24,0Zm1.413,31.092V3.533a3.807,3.807,0,0,0-.707-2.12H61.679a2.082,2.082,0,0,1,2.12,2.12v31.8H43.306v3.533a2.12,2.12,0,0,1-4.24,0Zm28.266-2.12v2.12a2.082,2.082,0,0,1-2.12,2.12h-21.2a3.333,3.333,0,0,0,.707-2.12v-2.12Z" fill="#a4a4a4"/>
    <path id="Trazado_3204" data-name="Trazado 3204" d="M312,256h5.653v1.413H312Z" transform="translate(-255.267 -233.387)" fill="#a4a4a4"/>
    <path id="Trazado_3205" data-name="Trazado 3205" d="M128,256h14.84v1.413H128Z" transform="translate(-87.52 -233.387)" fill="#a4a4a4"/>
    <path id="Trazado_3206" data-name="Trazado 3206" d="M216,288h14.133v1.413H216Z" transform="translate(-167.747 -262.561)" fill="#a4a4a4"/>
    <path id="Trazado_3207" data-name="Trazado 3207" d="M128,288h6.36v1.413H128Z" transform="translate(-87.52 -262.561)" fill="#a4a4a4"/>
    <path id="Trazado_3208" data-name="Trazado 3208" d="M272,352h9.186v1.413H272Z" transform="translate(-218.801 -320.908)" fill="#a4a4a4"/>
    <path id="Trazado_3209" data-name="Trazado 3209" d="M128,352h11.306v1.413H128Z" transform="translate(-87.52 -320.908)" fill="#a4a4a4"/>
    <path id="Trazado_3210" data-name="Trazado 3210" d="M196.1,43.589l.848.566.848-.566a9.236,9.236,0,0,0,4.1-7.632V33.625L196.947,32,192,33.625v2.332A9.236,9.236,0,0,0,196.1,43.589Zm-2.685-8.974,3.533-1.2,3.533,1.2v1.343a7.8,7.8,0,0,1-3.462,6.5h-.071l-.071-.07a7.707,7.707,0,0,1-3.462-6.5Z" transform="translate(-145.867 -29.173)" fill="#a4a4a4"/>
    <path id="Trazado_3211" data-name="Trazado 3211" d="M239.18,79.34l-1.413-.141A4.38,4.38,0,0,1,236,82.238l.777,1.2A5.8,5.8,0,0,0,239.18,79.34Z" transform="translate(-185.98 -72.203)" fill="#a4a4a4"/>
    <path id="Trazado_3212" data-name="Trazado 3212" d="M176,320h17.666v1.413H176Z" transform="translate(-131.28 -291.734)" fill="#a4a4a4"/>
    <path id="Trazado_3213" data-name="Trazado 3213" d="M128,320h2.827v1.413H128Z" transform="translate(-87.52 -291.734)" fill="#a4a4a4"/>
    <path id="Trazado_3214" data-name="Trazado 3214" d="M216,224h14.133v1.413H216Z" transform="translate(-167.747 -204.214)" fill="#a4a4a4"/>
    <path id="Trazado_3215" data-name="Trazado 3215" d="M128,224h6.36v1.413H128Z" transform="translate(-87.52 -204.214)" fill="#a4a4a4"/>
    <path id="Trazado_3216" data-name="Trazado 3216" d="M192,184h9.893v1.413H192Z" transform="translate(-145.867 -167.747)" fill="#a4a4a4"/>
  </g>
</svg>
