<?xml version="1.0" encoding="utf-8"?>
<!-- Generator: Adobe Illustrator 24.0.1, SVG Export Plug-In . SVG Version: 6.00 Build 0)  -->
<svg version="1.1" id="Capa_1" xmlns="http://www.w3.org/2000/svg" xmlns:xlink="http://www.w3.org/1999/xlink" x="0px" y="0px"
	 viewBox="0 0 88.8 88.8" style="enable-background:new 0 0 88.8 88.8;" xml:space="preserve">
<style type="text/css">
	.st0{fill-rule:evenodd;clip-rule:evenodd;fill:#575757;}
</style>
<path class="st0" d="M44.4,0C19.9,0,0,19.9,0,44.4c0,24.5,19.9,44.4,44.4,44.4c24.5,0,44.4-19.9,44.4-44.4C88.8,19.9,68.9,0,44.4,0
	 M62.6,56.7c0.8,0.8,1.2,1.8,1.2,2.9c0,2.3-1.9,4.2-4.2,4.2c-1.1,0-2.2-0.5-2.9-1.2L44.4,50.3L32.1,62.6c-0.8,0.8-1.8,1.2-2.9,1.2
	c-2.3,0-4.2-1.9-4.2-4.2c0-1.1,0.5-2.2,1.2-2.9l12.3-12.3L26.2,32.1c-0.8-0.8-1.2-1.8-1.2-2.9c0-2.3,1.9-4.2,4.2-4.2
	c1.2,0,2.2,0.5,2.9,1.2l12.3,12.3l12.3-12.3c0.8-0.7,1.8-1.2,2.9-1.2c2.3,0,4.2,1.9,4.2,4.2c0,1.2-0.5,2.2-1.2,2.9L50.3,44.4
	L62.6,56.7z"/>
</svg>
