<svg id="eye-open" xmlns="http://www.w3.org/2000/svg" width="20.743" height="13.334" viewBox="0 0 20.743 13.334">
  <path id="Trazado_2096" data-name="Trazado 2096" d="M20.511,97.234a12.363,12.363,0,0,0-4.358-4.26,11.193,11.193,0,0,0-11.564,0,12.36,12.36,0,0,0-4.358,4.26,1.494,1.494,0,0,0,0,1.6,12.357,12.357,0,0,0,4.358,4.26,11.212,11.212,0,0,0,11.564.006,12.281,12.281,0,0,0,4.358-4.265,1.494,1.494,0,0,0,0-1.6ZM7.888,94.068a3.387,3.387,0,0,1,2.483-1.036.556.556,0,1,1,0,1.111,2.411,2.411,0,0,0-2.408,2.408.556.556,0,1,1-1.111,0A3.388,3.388,0,0,1,7.888,94.068Zm7.513,7.744a9.7,9.7,0,0,1-10.059,0,11.948,11.948,0,0,1-3.86-3.779,11.377,11.377,0,0,1,4.41-4.086,5.058,5.058,0,0,0-.706,2.6,5,5,0,0,0,1.522,3.664,4.994,4.994,0,0,0,3.664,1.522,5,5,0,0,0,3.664-1.522,4.993,4.993,0,0,0,1.522-3.664,5.058,5.058,0,0,0-.706-2.6,11.378,11.378,0,0,1,4.41,4.086A11.945,11.945,0,0,1,15.4,101.812Z" transform="translate(0 -91.365)" fill="#aaa"/>
</svg>
