<svg xmlns="http://www.w3.org/2000/svg" width="24.963" height="24.705" viewBox="0 0 24.963 24.705">
  <g id="Group_555" data-name="Group 555" transform="translate(3.943 -2.233)">
    <g id="Group_6762" data-name="Group 6762" transform="translate(-3.693 2.233)">
      <path id="Path_3110" data-name="Path 3110" d="M48,258.982a6.425,6.425,0,0,1,.825-.854,1.85,1.85,0,0,1,2.395.256q1.493,1.483,2.977,2.976c.079.079.15.165.243.267.1-.092.179-.163.255-.238.986-.985,1.967-1.973,2.957-2.954a1.9,1.9,0,0,1,2.95.154c.1.13.167.277.263.437.063-.055.13-.107.189-.166.54-.539,1.073-1.084,1.621-1.614a.64.64,0,0,0,.212-.505c-.007-2.023,0-4.047,0-6.07a2.1,2.1,0,0,1,.406-1.372,1.9,1.9,0,0,1,3.4,1.1c.02.833.009,1.667.009,2.5,0,2.2.006,4.393-.009,6.589a1.2,1.2,0,0,1-.2.644c-1.682,2.379-3.381,4.747-5.067,7.123a.906.906,0,0,0-.152.469c-.018.548,0,1.1-.008,1.647a.565.565,0,0,1-.635.64q-6.162,0-12.324,0a.569.569,0,0,1-.632-.646c0-.549.01-1.1-.008-1.647a.906.906,0,0,0-.152-.469c-1.687-2.377-3.386-4.746-5.071-7.125a1.088,1.088,0,0,1-.193-.586q-.018-4.53-.007-9.06a1.9,1.9,0,0,1,3.736-.5,2.561,2.561,0,0,1,.067.632q.007,3.05,0,6.1a.673.673,0,0,0,.225.531C46.862,257.835,47.452,258.435,48,258.982Zm5.886,9.93a.644.644,0,0,0,.021-.1c0-2.013.006-4.027,0-6.04a.552.552,0,0,0-.16-.337c-.444-.461-.9-.911-1.355-1.363-.656-.653-1.3-1.316-1.974-1.951a.781.781,0,0,0-1.165.046.791.791,0,0,0,.081,1.142c.632.634,1.267,1.264,1.9,1.9a.561.561,0,0,1,.072.856c-.248.251-.54.225-.848-.083q-2.629-2.634-5.25-5.277a.9.9,0,0,1-.23-.558c-.024-.894-.011-1.789-.011-2.684q0-1.922,0-3.844a.915.915,0,0,0-.389-.844.751.751,0,0,0-.809-.036.839.839,0,0,0-.444.808c0,2.919,0,5.837.007,8.756a.767.767,0,0,0,.144.412q2.488,3.5,4.993,6.991a1.331,1.331,0,0,1,.294.9c-.025.432-.006.867-.006,1.307Zm6.282,0c0-.489-.021-.956.009-1.42a1.305,1.305,0,0,1,.2-.643q2.488-3.518,5.006-7.016a1.072,1.072,0,0,0,.217-.669c-.008-2.684,0-5.368-.005-8.052,0-.234.009-.468,0-.7a.807.807,0,0,0-1.559-.247,1.875,1.875,0,0,0-.076.57q-.008,3.172,0,6.344a.9.9,0,0,1-.288.7c-1.138,1.133-2.262,2.28-3.393,3.421-.587.592-1.169,1.19-1.775,1.761a.878.878,0,0,1-.576.248.592.592,0,0,1-.424-.357.7.7,0,0,1,.147-.568c.64-.681,1.316-1.329,1.973-1.995a.8.8,0,0,0-.236-1.317.832.832,0,0,0-.964.24c-1.066,1.062-2.125,2.131-3.2,3.187a.714.714,0,0,0-.225.563c.007,1.871,0,3.741,0,5.612v.343Z" transform="translate(-42.232 -245.563)" fill="#575757" stroke="#575757" stroke-width="0.5"/>
      <path id="Path_3111" data-name="Path 3111" d="M163.168,199.642c.854,0,1.707,0,2.561,0,.472,0,.654.179.69.655a1.337,1.337,0,0,0,1.215,1.236c.536.055.682.212.674.762-.012.822.018,1.649-.062,2.464a6.37,6.37,0,0,1-2.188,4.155,7.094,7.094,0,0,1-2.639,1.527.8.8,0,0,1-.471.024,6.961,6.961,0,0,1-4.733-4.869,10,10,0,0,1-.21-1.987c-.03-.455-.006-.914-.006-1.372,0-.478.158-.65.642-.7a1.322,1.322,0,0,0,1.214-1.025c.008-.029.019-.058.024-.088.133-.746.174-.78.941-.78Z" transform="translate(-150.927 -199.642)" fill="#e10518"/>
      <path id="Path_3112" data-name="Path 3112" d="M205.6,261.781l1.965-1.97a2.017,2.017,0,0,1,.2-.188.539.539,0,0,1,.733.789c-.307.325-.629.636-.945.952-.5.5-.989.995-1.489,1.487a.548.548,0,0,1-.876.015q-.549-.529-1.078-1.078a.547.547,0,0,1-.027-.789.539.539,0,0,1,.79.022C205.122,261.259,205.352,261.517,205.6,261.781Z" transform="translate(-194.062 -255.843)" fill="#eaeaea"/>
    </g>
  </g>
</svg>
