<svg xmlns="http://www.w3.org/2000/svg" width="25" height="24.997" viewBox="0 0 25 24.997">
  <g id="Group_4176" data-name="Group 4176" transform="translate(11.18 -554.565)">
    <g id="icon" transform="translate(-11.18 554.565)">
      <path id="Path_2110" data-name="Path 2110" d="M20.555,14.8,13.834,9.913a.81.81,0,0,0-1.287.654v9.768a.808.808,0,0,0,.443.723.816.816,0,0,0,.368.087.806.806,0,0,0,.476-.157l6.721-4.881a.8.8,0,0,0,0-1.308Z" transform="translate(-3.059 -2.938)" fill="#e10518"/>
      <path id="Path_2111" data-name="Path 2111" d="M12.5,0A12.5,12.5,0,1,0,25,12.5,12.5,12.5,0,0,0,12.5,0Zm0,22.911A10.412,10.412,0,1,1,22.911,12.5,10.411,10.411,0,0,1,12.5,22.913Z" transform="translate(0 -0.002)" fill="#575757"/>
    </g>
  </g>
</svg>
