<svg id="Group_5875" data-name="Group 5875" xmlns="http://www.w3.org/2000/svg" width="24.764" height="22.95" viewBox="0 0 24.764 22.95">
  <g id="Group_5868" data-name="Group 5868" transform="translate(0 0)">
    <text id="Vivienda" transform="translate(14.435 11.901)" fill="#575757" font-size="1" font-family="Roboto-Bold, Roboto" font-weight="700"><tspan x="-1.945" y="0">Vivienda</tspan></text>
    <g id="Group_5870" data-name="Group 5870">
      <g id="Group_5878" data-name="Group 5878">
        <g id="Group_5875-2" data-name="Group 5875" transform="translate(0 0.055)">
          <path id="Path_2759" data-name="Path 2759" d="M5286.019-1934.6a5.207,5.207,0,0,1,3.587-5.171,5.138,5.138,0,0,1,5.606,1.761,5.124,5.124,0,0,1,.216,5.959q1.032,1.283,2.072,2.576c.829,1.028,1.654,2.058,2.49,3.081a.9.9,0,0,1,.21.611c-.007,2.632,0,5.264,0,7.9,0,.612-.163.775-.779.775h-23.194c-.616,0-.783-.165-.783-.773q0-3.876,0-7.751a1.039,1.039,0,0,1,.237-.694c2.082-2.6,4.168-5.2,6.228-7.814a1.083,1.083,0,0,1,.98-.464C5283.92-1934.588,5284.958-1934.6,5286.019-1934.6Zm-1.153,15.789h3.691v.24c0-2.283,0-4.124,0-6.406a.886.886,0,0,0-.208-.606q-2.231-2.749-4.445-5.51c-.448-.557-.9-1.2-1.36-1.775-.071.083-.123.138-.171.2-1.921,2.392-3.548,4.431-5.463,6.829a.632.632,0,0,0-.122.367c-.006,2.341,0,4.075,0,6.416,0,.083.012.167.019.256h2.286v-5.289c0-.6.153-.751.763-.751h4.255c.6,0,.754.16.754.766v5.268Zm14.007.026v-6.585h-8.781v6.585Zm-11.789-16.17a4.082,4.082,0,0,0,4.058,4.154,4.105,4.105,0,0,0,4.095-4.07,4.1,4.1,0,0,0-4.075-4.088A4.051,4.051,0,0,0,5287.084-1934.958Z" transform="translate(-5275.438 1940.009)" fill="#575757"/>
        </g>
        <g id="Group_5877" data-name="Group 5877" transform="translate(10.466)">
          <path id="Path_2761" data-name="Path 2761" d="M5460.17-1939.781a4.025,4.025,0,0,1,4.021,4.021,4.025,4.025,0,0,1-4.021,4.02,4.025,4.025,0,0,1-4.02-4.02,4.025,4.025,0,0,1,4.02-4.021m0-1.166a5.186,5.186,0,0,0-5.186,5.186,5.186,5.186,0,0,0,5.186,5.186,5.186,5.186,0,0,0,5.187-5.186,5.187,5.187,0,0,0-5.187-5.186Z" transform="translate(-5454.984 1940.947)" fill="#e10518"/>
        </g>
        <path id="Path_3113" data-name="Path 3113" d="M205.729,261.953l2.113-2.119a2.169,2.169,0,0,1,.214-.2.58.58,0,0,1,.788.849c-.33.35-.677.684-1.017,1.024-.533.534-1.064,1.07-1.6,1.6a.589.589,0,0,1-.943.016q-.59-.569-1.159-1.16a.588.588,0,0,1-.029-.849.579.579,0,0,1,.849.024C205.212,261.392,205.459,261.67,205.729,261.953Z" transform="translate(-190.211 -255.541)" fill="#575757"/>
      </g>
    </g>
  </g>
  <g id="Component_8_192" data-name="Component 8 – 192" transform="translate(8.799 9.794)">
    <g id="Rectangle_57" data-name="Rectangle 57" fill="#fff" stroke="rgba(112,112,112,0.3)" stroke-width="1">
      <rect width="1" height="1" rx="0.5" stroke="none"/>
      <rect x="0.5" y="0.5" fill="none"/>
    </g>
    <rect id="Rectangle_60" data-name="Rectangle 60" fill="#dd141d" opacity="0"/>
  </g>
</svg>
