<svg xmlns="http://www.w3.org/2000/svg" width="25.25" height="31.941" viewBox="0 0 25.25 31.941">
  <g id="Group_5875" data-name="Group 5875" transform="translate(-2.549 2.456)">
    <g id="Component_8_193" data-name="Component 8 – 193" transform="translate(8.799 9.794)">
      <g id="Rectangle_57" data-name="Rectangle 57" fill="#fff" stroke="rgba(112,112,112,0.3)" stroke-width="1">
        <rect width="1" height="1" rx="0.5" stroke="none"/>
        <rect x="0.5" y="0.5" fill="none"/>
      </g>
      <rect id="Rectangle_60" data-name="Rectangle 60" fill="#dd141d" opacity="0"/>
    </g>
    <g id="Group_7157" data-name="Group 7157" transform="translate(-38.246 -40.076)">
      <path id="Path_3220" data-name="Path 3220" d="M56.664,38.818H45.406a.94.94,0,0,0-.939.939V63.025a.94.94,0,0,0,.939.939h7.422V61.954a3.8,3.8,0,0,1,1.212-2.792l1.024-.976H52.276a2.626,2.626,0,0,1-2.623-2.624v-.381a2.626,2.626,0,0,1,2.623-2.624H57.6v-12.8A.94.94,0,0,0,56.664,38.818Z" transform="translate(0.64 0.177)" fill="none"/>
      <path id="Path_3221" data-name="Path 3221" d="M56.664,38.818H45.406a.94.94,0,0,0-.939.939V63.025a.94.94,0,0,0,.939.939h7.422V61.954a3.8,3.8,0,0,1,1.212-2.792l1.024-.976H52.276a2.626,2.626,0,0,1-2.623-2.624v-.381a2.626,2.626,0,0,1,2.623-2.624H57.6v-12.8A.94.94,0,0,0,56.664,38.818Z" transform="translate(0.64 0.177)" fill="none"/>
      <path id="Path_3222" data-name="Path 3222" d="M56.664,38.818H45.406a.94.94,0,0,0-.939.939V63.025a.94.94,0,0,0,.939.939h7.422V61.954a3.8,3.8,0,0,1,1.212-2.792l1.024-.976H52.276a2.626,2.626,0,0,1-2.623-2.624v-.381a2.626,2.626,0,0,1,2.623-2.624H57.6v-12.8A.94.94,0,0,0,56.664,38.818Z" transform="translate(0.64 0.177)" fill="none"/>
      <path id="Path_3223" data-name="Path 3223" d="M48.416,69.562V67.349a.564.564,0,0,0-.093-.31l-1.17-1.773H53.94A.563.563,0,0,0,54.5,64.7l0-.02,0-.019V62.132a2.708,2.708,0,0,1,.779-1.906l2.127-2.017,0,0a.57.57,0,0,0,.122-.176l0-.007a.575.575,0,0,0,.044-.2V57.8a.542.542,0,0,0-.034-.188l-.006-.018a.565.565,0,0,0-.112-.177l0-.007,0,0a.549.549,0,0,0-.174-.123l-.007,0a.548.548,0,0,0-.2-.043h-.014l-.009,0H52.824a1.5,1.5,0,0,1-1.5-1.5v-.38a1.5,1.5,0,0,1,1.5-1.5h6.453c1.157.813,2.655,4.2,1.3,9.366v.006c-.1.412-.315.547-.823.839l.561.976a2.383,2.383,0,0,0,1.351-1.53l0,0c1.783-6.107-.551-10.269-2.393-10.933V39.934a2.066,2.066,0,0,0-2.064-2.064H45.954a2.066,2.066,0,0,0-2.064,2.064v4.343h-.715a2.131,2.131,0,0,0-.266,4.246,2.131,2.131,0,0,0,.266,4.246,2.133,2.133,0,0,0,0,4.266,2.132,2.132,0,0,0,0,4.265h.715v1.9A2.065,2.065,0,0,0,45.8,65.259l1.492,2.26v2.043m-3.4-9.248h-.715a1.148,1.148,0,1,1,0-2.3h.715Zm0-4.265h-.715a1.149,1.149,0,0,1,0-2.3h.715Zm0-4.266h-.715a1.148,1.148,0,1,1,0-2.3h.715Zm0-4.225h-.715a1.148,1.148,0,1,1,0-2.3h.715Zm14.26,5.177H52.824A2.627,2.627,0,0,0,50.2,55.359v.381a2.627,2.627,0,0,0,2.624,2.624h2.788l-1.024.977a3.8,3.8,0,0,0-1.212,2.79v2.009H45.954a.94.94,0,0,1-.939-.939V39.934A.94.94,0,0,1,45.954,39H57.212a.939.939,0,0,1,.938.939Z" fill="#575757" stroke="#575757" stroke-width="0.5"/>
      <path id="Path_3224" data-name="Path 3224" d="M56.514,41.132A1.429,1.429,0,0,0,55.088,39.7H46.553a1.428,1.428,0,0,0-1.427,1.428V61.15a1.429,1.429,0,0,0,1.427,1.428h4.769V61.8h-4.77a.649.649,0,0,1-.649-.648V41.132a.65.65,0,0,1,.649-.649h8.535a.649.649,0,0,1,.649.649v9.893h.777Z" transform="translate(0.763 0.343)" fill="#575757"/>
      <path id="Path_3225" data-name="Path 3225" d="M50.421,41.766a3.191,3.191,0,1,0,3.192,3.192A3.191,3.191,0,0,0,50.421,41.766Zm-.278,4.557-1.366-1.366.567-.567.8.8,1.6-1.6.567.567Z" transform="translate(1.156 0.728)" fill="#e10518"/>
    </g>
    <rect id="Rectangle_827" data-name="Rectangle 827" width="4" height="5" transform="translate(23.799 10.794)" fill="none"/>
  </g>
</svg>
