<svg xmlns="http://www.w3.org/2000/svg" width="17" height="21.482" viewBox="0 0 17 21.482">
  <g id="Grupo_4174" data-name="Grupo4174" transform="translate(-0.062)">
    <rect id="Rectángulo_224" data-name="Rectángulo 224" width="1" height="17" rx="0.5" transform="translate(17.062 20.482) rotate(90)" fill="#939393"/>
    <path id="download-arrow" d="M13.888,10.438a.876.876,0,0,1,1.25,0,.9.9,0,0,1,0,1.25L9.9,16.926a.906.906,0,0,1-1.275,0L3.388,11.688a.884.884,0,1,1,1.25-1.25l3.738,3.75V.875A.879.879,0,0,1,9.263,0a.87.87,0,0,1,.875.875V14.188Z" transform="translate(-0.261 0)" fill="#dd141d"/>
  </g>
</svg>
