<svg id="Grupo_12859" data-name="Grupo12859" xmlns="http://www.w3.org/2000/svg" width="129.322" height="100.696" viewBox="0 0 129.322 100.696">
  <path id="noun_House_132649" d="M139.8,83.55,116.225,51.557c-.027-.035-.062-.059-.089-.093a3.145,3.145,0,0,0-.409-.424c-.013-.01-.025-.02-.039-.032a3.172,3.172,0,0,0-2.039-.753H68.015V38.3a3.2,3.2,0,0,0-3.2-3.2H53.029a3.2,3.2,0,0,0-3.2,3.2V50.255H37.874a3.2,3.2,0,0,0-2.576,1.3L11.723,83.55c-.008.013-.012.029-.022.042a3.166,3.166,0,0,0-.4.783c-.02.057-.035.115-.054.173a3.179,3.179,0,0,0-.143.9V132.6a3.2,3.2,0,0,0,3.2,3.2H88.39a3.161,3.161,0,0,0,.842-.126,3.161,3.161,0,0,0,.842.126h47.149a3.2,3.2,0,0,0,3.2-3.2V85.448A3.2,3.2,0,0,0,139.8,83.55Zm-47.637-26.9L73.3,82.249H66.1l18.86-25.595Zm-22.362,0h7.205L58.146,82.249H50.941ZM56.228,41.5h5.388v8.756H56.228ZM54.645,56.654h7.205L42.991,82.249H35.786Zm-15.155,0H46.7L27.838,82.249H20.631ZM86.875,129.4H55.629a3.176,3.176,0,0,0,.6-1.852V109.022a3.2,3.2,0,0,0-3.2-3.2H49.661a3.2,3.2,0,0,0-3.2,3.2v18.523a3.176,3.176,0,0,0,.6,1.852H17.5V88.647H86.875Zm1.578-47.142c-.022,0-.04-.007-.062-.007h-7.14L100.11,56.654h7.205ZM134.024,129.4H93.274V86.5l20.375-27.653L134.024,86.5ZM108.765,100.6v13.471a3.2,3.2,0,0,0,3.2,3.2h3.368a3.2,3.2,0,0,0,3.2-3.2V100.6a3.2,3.2,0,0,0-3.2-3.2h-3.368A3.2,3.2,0,0,0,108.765,100.6Zm-43.949,16.67h10.1a3.2,3.2,0,0,0,3.2-3.2V100.6a3.2,3.2,0,0,0-3.2-3.2h-10.1a3.2,3.2,0,0,0-3.2,3.2v13.471A3.2,3.2,0,0,0,64.816,117.273Zm-37.045,0h10.1a3.2,3.2,0,0,0,3.2-3.2V100.6a3.2,3.2,0,0,0-3.2-3.2H27.77a3.2,3.2,0,0,0-3.2,3.2v13.471A3.2,3.2,0,0,0,27.77,117.273Z" transform="translate(-11.1 -35.1)" fill="#575757"/>
  <path id="noun_House_132649-2" data-name="noun_House_132649" d="M54.258,68.441h10.1a3.2,3.2,0,0,0,3.2-3.2V51.771a3.2,3.2,0,0,0-3.2-3.2h-10.1a3.2,3.2,0,0,0-3.2,3.2V65.242A3.2,3.2,0,0,0,54.258,68.441Zm-37.045,0h10.1a3.2,3.2,0,0,0,3.2-3.2V51.771a3.2,3.2,0,0,0-3.2-3.2h-10.1a3.2,3.2,0,0,0-3.2,3.2V65.242A3.2,3.2,0,0,0,17.212,68.441Z" transform="translate(-0.542 13.732)" fill="#e10518"/>
</svg>
