<svg xmlns="http://www.w3.org/2000/svg" width="28.026" height="32.338" viewBox="0 0 28.026 32.338">
  <g id="Grupo_12787" data-name="Grupo12787" transform="translate(-32)">
    <path id="Trazado_3203" data-name="Trazado 3203" d="M57.331,2.695A2.669,2.669,0,0,0,54.637,0H34.695A2.669,2.669,0,0,0,32,2.695V7.007h4.312V29.643a2.669,2.669,0,0,0,2.695,2.695H57.331a2.669,2.669,0,0,0,2.695-2.695V26.948H57.331ZM36.312,5.929H33.078V2.695a1.617,1.617,0,1,1,3.234,0ZM37.39,29.643V2.695a2.9,2.9,0,0,0-.539-1.617H54.637a1.588,1.588,0,0,1,1.617,1.617V26.948H40.623v2.695a1.617,1.617,0,0,1-3.234,0Zm21.559-1.617v1.617a1.588,1.588,0,0,1-1.617,1.617H41.162a2.542,2.542,0,0,0,.539-1.617V28.026Z" fill="#575757"/>
    <path id="Trazado_3204" data-name="Trazado 3204" d="M312,256h4.312v1.078H312Z" transform="translate(-261.136 -238.753)" fill="#575757"/>
    <path id="Trazado_3205" data-name="Trazado 3205" d="M128,256h11.318v1.078H128Z" transform="translate(-89.532 -238.753)" fill="#575757"/>
    <path id="Trazado_3206" data-name="Trazado 3206" d="M216,288h10.779v1.078H216Z" transform="translate(-171.604 -268.597)" fill="#575757"/>
    <path id="Trazado_3207" data-name="Trazado 3207" d="M128,288h4.851v1.078H128Z" transform="translate(-89.532 -268.597)" fill="#575757"/>
    <path id="Trazado_3208" data-name="Trazado 3208" d="M272,352h7.007v1.078H272Z" transform="translate(-223.831 -328.286)" fill="#575757"/>
    <path id="Trazado_3209" data-name="Trazado 3209" d="M128,352h8.623v1.078H128Z" transform="translate(-89.532 -328.286)" fill="#575757"/>
    <path id="Trazado_3210" data-name="Trazado 3210" d="M195.126,40.839l.647.431.647-.431a7.044,7.044,0,0,0,3.126-5.821V33.239L195.773,32,192,33.239v1.779A7.044,7.044,0,0,0,195.126,40.839Zm-2.048-6.845,2.695-.916,2.695.916v1.024a5.948,5.948,0,0,1-2.641,4.958h-.054l-.054-.054a5.878,5.878,0,0,1-2.641-4.959Z" transform="translate(-149.221 -29.844)" fill="#dd141d"/>
    <path id="Trazado_3211" data-name="Trazado 3211" d="M238.425,79.307l-1.078-.108A3.341,3.341,0,0,1,236,81.517l.593.916A4.42,4.42,0,0,0,238.425,79.307Z" transform="translate(-190.256 -73.863)" fill="#dd141d"/>
    <path id="Trazado_3212" data-name="Trazado 3212" d="M176,320h13.474v1.078H176Z" transform="translate(-134.299 -298.441)" fill="#575757"/>
    <path id="Trazado_3213" data-name="Trazado 3213" d="M128,320h2.156v1.078H128Z" transform="translate(-89.532 -298.441)" fill="#575757"/>
    <path id="Trazado_3214" data-name="Trazado 3214" d="M216,224h10.779v1.078H216Z" transform="translate(-171.604 -208.909)" fill="#575757"/>
    <path id="Trazado_3215" data-name="Trazado 3215" d="M128,224h4.851v1.078H128Z" transform="translate(-89.532 -208.909)" fill="#575757"/>
    <path id="Trazado_3216" data-name="Trazado 3216" d="M192,184h7.546v1.078H192Z" transform="translate(-149.221 -171.604)" fill="#575757"/>
  </g>
</svg>
