<svg id="Grupo_12860" data-name="Grupo12860" xmlns="http://www.w3.org/2000/svg" width="114.167" height="93.96" viewBox="0 0 114.167 93.96">
  <g id="Grupo_12517" data-name="Grupo 12517" transform="translate(0 0)">
    <path id="noun_House_132644" d="M129.643,87.55,106.068,55.557c-.024-.032-.056-.052-.079-.083a3.324,3.324,0,0,0-.421-.436l-.035-.029a3.16,3.16,0,0,0-2.039-.754H73.015V42.3a3.2,3.2,0,0,0-3.2-3.2H58.029a3.2,3.2,0,0,0-3.2,3.2V54.255H42.874a3.194,3.194,0,0,0-2.575,1.3L16.725,87.55c-.008.012-.012.025-.02.037a3.163,3.163,0,0,0-.408.79c-.02.057-.035.113-.052.17a3.132,3.132,0,0,0-.145.9v40.413a3.2,3.2,0,0,0,3.2,3.2H78.235a3.161,3.161,0,0,0,.842-.126,3.161,3.161,0,0,0,.842.126h47.149a3.2,3.2,0,0,0,3.2-3.2V89.448A3.181,3.181,0,0,0,129.643,87.55ZM74.8,60.654h7.207L63.148,86.249H55.941ZM61.228,45.5h5.388v8.756H61.228ZM59.645,60.654h7.207L47.993,86.249H40.786Zm-15.155,0H51.7L32.838,86.249H25.632Zm32.23,66.008H22.5V92.647H76.72ZM78.3,86.255c-.022,0-.04-.007-.062-.007H71.1l18.86-25.595h7.207Zm45.571,40.406H108.362c0-.057.017-.111.017-.168V107.971a3.2,3.2,0,0,0-3.2-3.2h-3.368a3.2,3.2,0,0,0-3.2,3.2v18.523c0,.057.013.111.017.168H83.119V90.5l20.375-27.653L123.869,90.5Zm-92.782-7.072H44.558a3.2,3.2,0,0,0,3.2-3.2V102.919a3.2,3.2,0,0,0-3.2-3.2H31.087a3.2,3.2,0,0,0-3.2,3.2V116.39A3.2,3.2,0,0,0,31.087,119.589Zm23.574,0H68.132a3.2,3.2,0,0,0,3.2-3.2V102.919a3.2,3.2,0,0,0-3.2-3.2H54.661a3.2,3.2,0,0,0-3.2,3.2V116.39A3.2,3.2,0,0,0,54.661,119.589Z" transform="translate(-16.1 -39.1)" fill="#575757"/>
    <path id="noun_House_132644-2" data-name="noun_House_132644" d="M21.848,72.077H35.319a3.2,3.2,0,0,0,3.2-3.2V55.407a3.2,3.2,0,0,0-3.2-3.2H21.848a3.2,3.2,0,0,0-3.2,3.2V68.878A3.2,3.2,0,0,0,21.848,72.077Zm23.574,0H58.894a3.2,3.2,0,0,0,3.2-3.2V55.407a3.2,3.2,0,0,0-3.2-3.2H45.422a3.2,3.2,0,0,0-3.2,3.2V68.878A3.2,3.2,0,0,0,45.422,72.077Z" transform="translate(-6.861 8.412)" fill="#e10518"/>
  </g>
</svg>
