<svg xmlns="http://www.w3.org/2000/svg" width="20.929" height="25.521" viewBox="0 0 20.929 25.521">
  <g id="Grupo_12377" data-name="Grupo12377" transform="translate(-93.102 -19.56)">
    <g id="Grupo_12353" data-name="Grupo 12353" transform="translate(100.585 23.587)">
      <g id="Grupo_12848" data-name="Grupo 12848">
        <path id="download-arrow" d="M11.714,8.33a.7.7,0,0,1,1,0,.716.716,0,0,1,0,1l-4.179,4.18a.723.723,0,0,1-1.017,0L3.335,9.327a.705.705,0,0,1,1-1l2.983,2.993V.7A.7.7,0,0,1,8.023,0a.694.694,0,0,1,.7.7V11.322Z" transform="translate(-3.126 0)" fill="#dd141d"/>
      </g>
    </g>
    <g id="Grupo_12354" data-name="Grupo12354" transform="translate(93.102 19.56)">
      <path id="Trazado_3382" data-name="Trazado 3382" d="M2.226,25.521H15.852A2.241,2.241,0,0,0,18.1,23.289V22.37h.6a2.214,2.214,0,0,0,2.226-2.221V4.842a.616.616,0,0,0-.171-.443L16.732.192A.621.621,0,0,0,16.273,0H5.366A2.259,2.259,0,0,0,3.1,2.232v.6h-.87A2.242,2.242,0,0,0,0,5.088v18.2A2.223,2.223,0,0,0,2.226,25.521Zm14.7-23.294,1.885,1.991H16.925ZM4.378,2.232a.975.975,0,0,1,.988-.95H15.643V4.848a.644.644,0,0,0,.635.651h3.369v14.65a.929.929,0,0,1-.945.94H5.366a.969.969,0,0,1-.988-.94Zm-3.1,2.856a.961.961,0,0,1,.945-.977H3.1V20.149A2.247,2.247,0,0,0,5.366,22.37H16.818v.918a.959.959,0,0,1-.966.95H2.226a.941.941,0,0,1-.945-.95Z" transform="translate(0 0)" fill="#575757"/>
    </g>
  </g>
</svg>
