<svg xmlns="http://www.w3.org/2000/svg" width="19.668" height="25.594" viewBox="0 0 19.668 25.594">
  <g id="Grupo_12570" data-name="Grupo12570" transform="translate(-1501.667 6935.1)">
    <g id="noun_Workplace_516838" transform="translate(1492.767 -6937)">
      <path id="Trazado_4251" data-name="Trazado 4251" d="M18.734,2C12.639,2,9,5.8,9,12.157c0,6.893,9.071,14.8,9.458,15.133a.423.423,0,0,0,.553,0c.386-.333,9.458-8.24,9.458-15.133C28.468,5.8,24.829,2,18.734,2Zm0,24.4C17.2,25.01,9.846,18.015,9.846,12.157c0-5.83,3.323-9.311,8.888-9.311s8.888,3.481,8.888,9.311C27.622,18.015,20.266,25.01,18.734,26.4Z" transform="translate(0)" fill="#575757" stroke="#575757" stroke-linecap="round" stroke-width="0.2"/>
      <path id="Trazado_4252" data-name="Trazado 4252" d="M22.195,7a7.195,7.195,0,1,0,7.195,7.195A7.2,7.2,0,0,0,22.195,7Zm0,13.543a6.348,6.348,0,1,1,6.348-6.348A6.356,6.356,0,0,1,22.195,20.543Z" transform="translate(-3.461 -2.884)" fill="#575757" stroke="#575757" stroke-linecap="round" stroke-width="0.2"/>
      <rect id="Rectángulo_1535" data-name="Rectángulo 1535" height="1" transform="translate(17.233 15)" fill="#575757"/>
      <path id="Trazado_4257" data-name="Trazado 4257" d="M43.867,45.433a2.5,2.5,0,1,1-2.276-2.7A2.5,2.5,0,0,1,43.867,45.433Z" transform="translate(-22.643 -34.169)" fill="#dd141d"/>
    </g>
  </g>
</svg>
