<svg id="Grupo_12863" data-name="Grupo12863" xmlns="http://www.w3.org/2000/svg" width="105.442" height="121.664" viewBox="0 0 105.442 121.664">
  <path id="Trazado_3203" data-name="Trazado 3203" d="M127.3,10.139A10.041,10.041,0,0,0,117.165,0H42.139A10.041,10.041,0,0,0,32,10.139V26.361H48.222v85.165a10.041,10.041,0,0,0,10.139,10.139H127.3a10.041,10.041,0,0,0,10.139-10.139V101.387H127.3ZM48.222,22.305H36.055V10.139a6.083,6.083,0,1,1,12.166,0Zm4.055,89.22V10.139A10.924,10.924,0,0,0,50.25,4.055h66.915a5.974,5.974,0,0,1,6.083,6.083v91.248h-58.8v10.139a6.083,6.083,0,0,1-12.166,0Zm81.11-6.083v6.083a5.974,5.974,0,0,1-6.083,6.083H66.472a9.565,9.565,0,0,0,2.028-6.083v-6.083Z" transform="translate(-32)" fill="#575757"/>
  <path id="Trazado_3204" data-name="Trazado 3204" d="M312,256h16.222v4.056H312Z" transform="translate(-241.029 -191.112)" fill="#575757"/>
  <path id="Trazado_3205" data-name="Trazado 3205" d="M128,256h42.582v4.056H128Z" transform="translate(-103.667 -191.112)" fill="#575757"/>
  <path id="Trazado_3206" data-name="Trazado 3206" d="M216,288h40.555v4.056H216Z" transform="translate(-169.362 -215.001)" fill="#575757"/>
  <path id="Trazado_3207" data-name="Trazado 3207" d="M128,288h18.25v4.056H128Z" transform="translate(-103.667 -215.001)" fill="#575757"/>
  <path id="Trazado_3208" data-name="Trazado 3208" d="M272,352h26.361v4.055H272Z" transform="translate(-211.168 -262.78)" fill="#575757"/>
  <path id="Trazado_3209" data-name="Trazado 3209" d="M128,352h32.444v4.055H128Z" transform="translate(-103.667 -262.78)" fill="#575757"/>
  <path id="Trazado_3210" data-name="Trazado 3210" d="M203.76,65.255l2.434,1.623,2.434-1.623a26.5,26.5,0,0,0,11.76-21.9V36.663L206.194,32,192,36.663v6.692A26.5,26.5,0,0,0,203.76,65.255Zm-7.7-25.752,10.139-3.448L216.333,39.5v3.852A22.376,22.376,0,0,1,206.4,62.01h-.2l-.2-.2a22.116,22.116,0,0,1-9.936-18.656Z" transform="translate(-151.445 -23.889)" fill="#dd141d"/>
  <path id="Trazado_3211" data-name="Trazado 3211" d="M245.125,79.605,241.07,79.2a12.569,12.569,0,0,1-5.07,8.72l2.231,3.446A16.629,16.629,0,0,0,245.125,79.605Z" transform="translate(-184.293 -59.125)" fill="#dd141d"/>
  <path id="Trazado_3212" data-name="Trazado 3212" d="M176,320h50.693v4.056H176Z" transform="translate(-139.501 -238.891)" fill="#575757"/>
  <path id="Trazado_3213" data-name="Trazado 3213" d="M128,320h8.111v4.056H128Z" transform="translate(-103.667 -238.891)" fill="#575757"/>
  <path id="Trazado_3214" data-name="Trazado 3214" d="M216,224h40.555v4.056H216Z" transform="translate(-169.362 -167.223)" fill="#575757"/>
  <path id="Trazado_3215" data-name="Trazado 3215" d="M128,224h18.25v4.056H128Z" transform="translate(-103.667 -167.223)" fill="#575757"/>
  <path id="Trazado_3216" data-name="Trazado 3216" d="M192,184h28.388v4.055H192Z" transform="translate(-151.445 -137.362)" fill="#575757"/>
</svg>
