<svg width="500" height="500" xmlns="http://www.w3.org/2000/svg">
 <!-- Created with Method Draw - http://github.com/duopixel/Method-Draw/ -->

 <g>
  <title>Layer 1</title>
  <g stroke="null" id="svg_30">
   <g id="svg_27" fill="#000000" transform="matrix(1.9075744077958325,0,0,-1.8715934156349117,-0.0000013901384108838677,524.0461488549506) ">
    <path fill="#7b7b7b" stroke="null" id="svg_28" d="m89.35612,274.859324c-114,-35 -121,-208 -9,-251c116,-44 221,72 168,185c-25,53 -100,84 -159,66zm94,-25c42,-21 60,-53 60,-103c0,-37 -6,-50 -34,-78c-29,-29 -41,-34 -79,-34c-104,0 -155,122 -79,192c44,41 83,48 132,23z"/>
    <path fill="#7b7b7b" stroke="null" id="svg_29" d="m101.906845,145.308598l0,-60l40,28c22,15 40,31 40,35c0,8 -63,58 -73,58c-4,0 -7,-27 -7,-61z"/>
   </g>
  </g>
 </g>
</svg>