<svg xmlns="http://www.w3.org/2000/svg" width="20.523" height="18.322" viewBox="0 0 20.523 18.322">
  <g id="Grupo_5875" data-name="Grupo5875" transform="translate(1.26 -1.37)">
    <g id="noun_Document_8581" transform="translate(-3.998 -8.005)">
      <g id="Grupo_12508" data-name="Grupo12508">
        <path id="Trazado_4195" data-name="Trazado 4195" d="M17.624,15.012H21.5l-3.876-3.876Zm4.228,1.409H16.214V10.784H9.167V14.66L7.758,13.251V9.375H17.976l5.285,5.285V27.7H7.758V21l1.409,1.409v3.876H21.852ZM7.406,14.308,14.1,21l-2.466,2.466L4.939,16.774ZM4.411,16.246,3,15.115a1.466,1.466,0,0,1,.176-1.864l.7-.7a1.329,1.329,0,0,1,1.762-.176l1.233,1.409Zm10.752,8.632-3-.881,2.466-2.466.824,3.058Z" transform="translate(0 0)" fill="#5b5b5b"/>
        <path id="Trazado_4196" data-name="Trazado 4196" d="M7.406,14.586,14.1,21.28l-2.466,2.466L4.939,17.052ZM4.411,16.524,3,15.393a1.466,1.466,0,0,1,.176-1.864l.7-.7a1.329,1.329,0,0,1,1.762-.176l1.233,1.409Zm10.752,8.632-3-.881,2.466-2.466.824,3.058Z" transform="translate(0 -0.278)" fill="#999"/>
      </g>
    </g>
  </g>
</svg>
