<svg id="Grupo_12858" data-name="Grupo12858" xmlns="http://www.w3.org/2000/svg" width="114.167" height="100.696" viewBox="0 0 114.167 100.696">
  <path id="noun_House_132645" d="M129.643,83.55,106.068,51.557c-.024-.032-.056-.052-.079-.082a3.325,3.325,0,0,0-.421-.436l-.035-.029a3.16,3.16,0,0,0-2.039-.754H73.015V38.3a3.2,3.2,0,0,0-3.2-3.2H58.029a3.2,3.2,0,0,0-3.2,3.2V50.255H42.874a3.194,3.194,0,0,0-2.575,1.3L16.725,83.55c-.008.012-.012.025-.02.037a3.163,3.163,0,0,0-.408.79c-.02.057-.035.113-.052.17a3.133,3.133,0,0,0-.145.9V132.6a3.2,3.2,0,0,0,3.2,3.2H78.235a3.161,3.161,0,0,0,.842-.126,3.161,3.161,0,0,0,.842.126h47.149a3.2,3.2,0,0,0,3.2-3.2V85.448A3.181,3.181,0,0,0,129.643,83.55ZM74.8,56.654h7.207L63.148,82.249H55.941ZM61.228,41.5h5.388v8.756H61.228ZM59.645,56.654h7.207L47.993,82.249H40.786Zm-15.155,0H51.7L32.838,82.249H25.632ZM76.72,129.4H53.895a3.174,3.174,0,0,0,.6-1.852V109.022a3.2,3.2,0,0,0-3.2-3.2H47.925a3.2,3.2,0,0,0-3.2,3.2v18.523a3.186,3.186,0,0,0,.6,1.852H22.5V88.647H76.72ZM78.3,82.255c-.022,0-.04-.007-.062-.007H71.1l18.86-25.595h7.207ZM123.869,129.4H83.119V86.5l20.375-27.653L123.869,86.5Zm-91.1-12.124h3.368a3.2,3.2,0,0,0,3.2-3.2V100.6a3.2,3.2,0,0,0-3.2-3.2H32.77a3.2,3.2,0,0,0-3.2,3.2v13.471A3.2,3.2,0,0,0,32.77,117.273Zm30.31,0h3.368a3.2,3.2,0,0,0,3.2-3.2V100.6a3.2,3.2,0,0,0-3.2-3.2H63.08a3.2,3.2,0,0,0-3.2,3.2v13.471A3.2,3.2,0,0,0,63.08,117.273Zm48.833,0h3.368a3.2,3.2,0,0,0,3.2-3.2V100.6a3.2,3.2,0,0,0-3.2-3.2h-3.368a3.2,3.2,0,0,0-3.2,3.2v13.471A3.2,3.2,0,0,0,111.913,117.273ZM96.758,97.4H93.39a3.2,3.2,0,0,0-3.2,3.2v13.471a3.2,3.2,0,0,0,3.2,3.2h3.368a3.2,3.2,0,0,0,3.2-3.2V100.6A3.2,3.2,0,0,0,96.758,97.4Z" transform="translate(-16.1 -35.1)" fill="#575757"/>
  <path id="noun_House_132645-2" data-name="noun_House_132645" d="M53.842,68.441H57.21a3.2,3.2,0,0,0,3.2-3.2V51.771a3.2,3.2,0,0,0-3.2-3.2H53.842a3.2,3.2,0,0,0-3.2,3.2V65.242A3.2,3.2,0,0,0,53.842,68.441ZM38.687,48.571H35.32a3.2,3.2,0,0,0-3.2,3.2V65.242a3.2,3.2,0,0,0,3.2,3.2h3.368a3.2,3.2,0,0,0,3.2-3.2V51.771A3.2,3.2,0,0,0,38.687,48.571Z" transform="translate(41.971 13.732)" fill="#e10518"/>
</svg>
