<svg id="Grupo_12862" data-name="Grupo12862" xmlns="http://www.w3.org/2000/svg" width="106.977" height="95.502" viewBox="0 0 106.977 95.502">
  <g id="noun_Document_8581" transform="translate(0 0)">
    <g id="Grupo_12508" data-name="Grupo 12508">
      <path id="Trazado_4195" data-name="Trazado 4195" d="M80.329,38.76h20.2l-20.2-20.2Zm22.039,7.346H72.983V16.721H36.251v20.2L28.9,29.577V9.375H82.166l27.549,27.549v67.953H28.9v-34.9l7.346,7.346v20.2h66.117Zm-75.3-11.019,34.9,34.895L49.107,82.838l-34.9-34.895Zm-15.611,10.1L4.111,39.3c-2.356-2.356-1.438-7.362.918-9.718L8.7,25.9c2.356-2.356,6.827-3.274,9.183-.918l6.428,7.346Zm56.046,45L51.862,85.593,64.718,72.737l4.294,15.939Z" transform="translate(-2.738 -9.375)" fill="#575757"/>
      <path id="Trazado_4196" data-name="Trazado 4196" d="M27.068,23.859l34.9,34.895L49.107,71.61l-34.9-34.895ZM11.458,33.96,4.111,28.067c-2.356-2.356-1.438-7.362.918-9.718L8.7,14.676c2.356-2.356,6.827-3.274,9.183-.918L24.313,21.1Zm56.046,45L51.862,74.365,64.718,61.509l4.294,15.939Z" transform="translate(-2.738 1.853)" fill="#e10518"/>
    </g>
  </g>
</svg>
