<svg xmlns="http://www.w3.org/2000/svg" width="104.561" height="99.418" viewBox="0 0 104.561 99.418">
  <g id="Grupo_12861" data-name="Grupo12861" transform="translate(0)">
    <path id="Trazado_2725" data-name="Trazado 2725" d="M4340.644-1703.229c-2.555,0-5.107.011-7.662,0-1.436-.008-1.852-.416-1.91-1.851-.1-2.232-.189-4.464-.234-6.7a3.918,3.918,0,0,0-.957-2.593c-5.244-6.231-10.439-12.5-15.65-18.755a15.991,15.991,0,0,1-3.6-8.958c-.824-8.5-1.693-16.991-2.527-25.488a6.1,6.1,0,0,1,.068-1.665,3.489,3.489,0,0,1,3.107-2.865,2.986,2.986,0,0,1,3.184,2.2,66.071,66.071,0,0,1,1.59,7.83c.432,3.2.652,6.425.881,9.646a15.169,15.169,0,0,0,2.426,6.813c2.918,4.8,5.977,9.521,8.982,14.272.1.168.25.31.361.474.438.633,1.039,1,1.721.537.732-.5.41-1.175.031-1.793-2.926-4.8-5.869-9.595-8.764-14.414a3.93,3.93,0,0,1,2.434-6.033,3.612,3.612,0,0,1,3.881,1.5c3.15,4.073,6.273,8.167,9.49,12.185a18.684,18.684,0,0,0,3.324,3.235c5.084,3.815,8.906,8.5,10.092,14.882a29.1,29.1,0,0,1,.113,6.178c-.092,3.07-.3,6.136-.459,9.2-.086,1.683-.689,2.273-2.377,2.276q-3.773.006-7.545,0Z" transform="translate(-4308.074 1802.529)" fill="#5b5b5b"/>
    <path id="Trazado_2726" data-name="Trazado 2726" d="M4574.3-1703.4c-2.516,0-5.031.007-7.547,0-1.318-.006-1.744-.345-1.822-1.661-.266-4.58-.713-9.166-.656-13.744a18.117,18.117,0,0,1,4.748-11.632,75.233,75.233,0,0,1,5.715-5.423,28.928,28.928,0,0,0,2.91-2.811c3.264-4.087,6.457-8.232,9.645-12.376,1.4-1.821,3.465-2.319,5.252-1.189a3.948,3.948,0,0,1,1.248,5.462c-1.77,2.986-3.6,5.937-5.4,8.9l-3.363,5.518c-.393.643-.775,1.338.039,1.887s1.34-.072,1.768-.674a115.856,115.856,0,0,0,10.4-16.9,16.934,16.934,0,0,0,1.365-5.771c.488-4.836,1.158-9.655,1.773-14.479a6.035,6.035,0,0,1,.334-1.146c.682-2.046,1.992-3.008,3.643-2.685a3.716,3.716,0,0,1,3.064,4.1c-.717,6.665-1.473,13.326-2.221,19.988-.25,2.26-.5,4.521-.758,6.781a15.5,15.5,0,0,1-3.76,8.261q-7.869,9.421-15.7,18.879a2.484,2.484,0,0,0-.525,1.382c-.127,2.35-.193,4.7-.264,7.058-.051,1.741-.5,2.219-2.219,2.229-2.557.014-5.113,0-7.67,0Z" transform="translate(-4502.873 1802.582)" fill="#5b5b5b"/>
    <path id="Trazado_2727" data-name="Trazado 2727" d="M4426.934-1899.012h25.393a5.468,5.468,0,0,1,5.869,5.815q.018,13.535,0,27.073a5.5,5.5,0,0,1-5.859,5.854q-25.4.022-50.793,0c-3.615,0-5.855-2.335-5.857-5.97q0-13.415,0-26.833c0-3.719,2.234-5.938,5.971-5.938Zm-20.156,4.78c-.033,4.2-2.107,6.277-6.3,6.319v16.348c4.072-.014,6.457,2.394,6.328,6.418H4446.7a6.054,6.054,0,0,1,1.943-4.671,5.606,5.606,0,0,1,4.875-1.247v-16.463c-4.635.5-7.285-2.927-6.648-6.7Z" transform="translate(-4374.689 1899.012)" fill="#5b5b5b"/>
    <path id="Trazado_2728" data-name="Trazado 2728" d="M4432.05-1722.345q13.415,0,26.834,0c2.2,0,3.35.825,3.324,2.378s-1.17,2.34-3.383,2.34q-26.774,0-53.551,0c-.119,0-.24,0-.361,0-1.869-.043-2.973-.936-2.957-2.4s1.125-2.318,3.018-2.319Q4418.515-1722.35,4432.05-1722.345Z" transform="translate(-4379.458 1764.683)" fill="#dd141d"/>
    <path id="Trazado_2729" data-name="Trazado 2729" d="M4442.795-1687.193q10.421,0,20.834.008a4.49,4.49,0,0,1,1.525.2,2.134,2.134,0,0,1,1.469,2.344,2.174,2.174,0,0,1-1.85,2.062,6.078,6.078,0,0,1-1.309.068q-20.78.005-41.551,0c-.318,0-.643.019-.959-.01a2.387,2.387,0,0,1-2.2-2.284,2.431,2.431,0,0,1,2.129-2.365,9.007,9.007,0,0,1,1.078-.02Z" transform="translate(-4392.229 1737.959)" fill="#dd141d"/>
    <path id="Trazado_2730" data-name="Trazado 2730" d="M4468.224-1652.021q6.586,0,13.166,0c1.791,0,2.863.867,2.889,2.313.025,1.467-1.1,2.4-2.936,2.4-8.855.005-17.709.028-26.568-.042a3.469,3.469,0,0,1-2.361-1.018,2.852,2.852,0,0,1-.238-2.3,2.113,2.113,0,0,1,2.287-1.363Q4461.347-1652.01,4468.224-1652.021Z" transform="translate(-4417.545 1711.214)" fill="#dd141d"/>
    <path id="Trazado_2731" data-name="Trazado 2731" d="M4352.127-1744.313q-.94-7.181-1.85-14.2a2.813,2.813,0,0,1,2.193,2.426c.637,2.669,1.207,5.359,1.686,8.062C4354.6-1745.5,4354.531-1745.485,4352.127-1744.313Z" transform="translate(-4340.164 1792.179)" fill="#fff"/>
    <path id="Trazado_2732" data-name="Trazado 2732" d="M4688.979-1759.515c-.6,4.831-1.2,9.592-1.807,14.4a20.411,20.411,0,0,1-1.992-1.06,1.1,1.1,0,0,1-.262-.9c.605-3.243,1.215-6.484,1.893-9.711A3.3,3.3,0,0,1,4688.979-1759.515Z" transform="translate(-4594.601 1792.944)" fill="#fff"/>
    <path id="Trazado_2733" data-name="Trazado 2733" d="M4375.674-1734.458c-2.5-.513-2.451-.523-2.885-2.523-.5-2.284-1.094-4.546-1.645-6.818l.248-.234c.523.476,1.307.854,1.529,1.443C4373.895-1740.01,4374.707-1737.368,4375.674-1734.458Z" transform="translate(-4356.03 1781.174)" fill="#fff"/>
    <path id="Trazado_2734" data-name="Trazado 2734" d="M4667.27-1743.492q-.762,3.04-1.521,6.078a7.8,7.8,0,0,0-.16.815c-.295,2.081-.293,2.081-2.822,2.345.916-2.741,1.727-5.367,2.7-7.931.232-.607,1.014-1.006,1.541-1.5C4667.094-1743.621,4667.18-1743.555,4667.27-1743.492Z" transform="translate(-4577.766 1780.908)" fill="#fff"/>
    <path id="Trazado_2735" data-name="Trazado 2735" d="M4500.372-1855.487a11.919,11.919,0,0,1-11.834,11.8,11.879,11.879,0,0,1-11.852-12,11.862,11.862,0,0,1,11.83-11.65A11.809,11.809,0,0,1,4500.372-1855.487Zm-10.453,8.841c-.4-1.533.33-2.106,1.564-2.705a3.5,3.5,0,0,0,.371-5.835,20.21,20.21,0,0,0-2.4-1.328c-.49-.266-1.15-.419-1.42-.829a2.949,2.949,0,0,1-.434-1.838,1.368,1.368,0,0,1,1.055-.859c.457.021,1.221.458,1.275.81.236,1.456,1.227,1.25,2.227,1.3,1.061.048,1.225-.428,1.018-1.313a3.387,3.387,0,0,0-2.176-2.514c-.76-.284-1.113-.646-.984-1.461.117-.715-.207-.992-.943-.976-.7.015-1.191.1-1.123.96a6.6,6.6,0,0,1-.055.912c-2.627.976-3.4,1.943-3.381,4.066a3.382,3.382,0,0,0,1.873,3.113,25.3,25.3,0,0,1,3.061,1.589,2.468,2.468,0,0,1,.65,1.833c-.006.362-.7,1.029-1.035,1-.58-.057-1.5-.455-1.6-.875-.332-1.36-1.221-1.266-2.244-1.3-1.123-.032-1.285.446-1.031,1.395a3.978,3.978,0,0,0,2.791,2.858c.363.126.736.234,1.074.343.049.595.092,1.1.143,1.656Z" transform="translate(-4436.279 1874.931)" fill="#dd141d"/>
    <path id="Trazado_2736" data-name="Trazado 2736" d="M4440.358-1828.6a3.312,3.312,0,0,1,3.277-3.278,3.352,3.352,0,0,1,3.273,3.3,3.34,3.34,0,0,1-3.359,3.324A3.28,3.28,0,0,1,4440.358-1828.6Z" transform="translate(-4408.657 1847.963)" fill="#fff"/>
    <path id="Trazado_2737" data-name="Trazado 2737" d="M4591.057-1828.452a3.333,3.333,0,0,1-3.314,3.255,3.341,3.341,0,0,1-3.248-3.432,3.308,3.308,0,0,1,3.363-3.187A3.319,3.319,0,0,1,4591.057-1828.452Z" transform="translate(-4518.25 1847.92)" fill="#fff"/>
  </g>
</svg>
