<svg xmlns="http://www.w3.org/2000/svg" width="63.886" height="63.886" viewBox="0 0 63.886 63.886">
  <path id="Trazado_3227" data-name="Trazado 3227" d="M64.434,15.068H54.27V3.452A1.452,1.452,0,0,0,52.818,2H15.068a1.452,1.452,0,0,0-1.452,1.452V15.068H3.452A1.452,1.452,0,0,0,2,16.519V60.078A1.452,1.452,0,0,0,3.452,61.53H7.808v2.9A1.452,1.452,0,0,0,9.26,65.886H20.875a1.452,1.452,0,0,0,1.452-1.452v-2.9H45.558v2.9a1.452,1.452,0,0,0,1.452,1.452H58.626a1.452,1.452,0,0,0,1.452-1.452v-2.9h4.356a1.452,1.452,0,0,0,1.452-1.452V16.519A1.452,1.452,0,0,0,64.434,15.068ZM16.519,4.9H51.366V15.068H16.519Zm2.9,58.078H10.712V61.53h8.712Zm37.751,0H48.462V61.53h8.712Zm5.808-4.356H4.9V17.971H62.982ZM45.558,32.491H39.751V26.683A1.452,1.452,0,0,0,38.3,25.231H29.587a1.452,1.452,0,0,0-1.452,1.452v5.808H22.327a1.452,1.452,0,0,0-1.452,1.452v8.712a1.452,1.452,0,0,0,1.452,1.452h5.808v5.808a1.452,1.452,0,0,0,1.452,1.452H38.3a1.452,1.452,0,0,0,1.452-1.452V44.107h5.808a1.452,1.452,0,0,0,1.452-1.452V33.943A1.452,1.452,0,0,0,45.558,32.491ZM44.107,41.2H38.3a1.452,1.452,0,0,0-1.452,1.452v5.808H31.039V42.655A1.452,1.452,0,0,0,29.587,41.2H23.779V35.395h5.808a1.452,1.452,0,0,0,1.452-1.452V28.135h5.808v5.808A1.452,1.452,0,0,0,38.3,35.395h5.808Z" transform="translate(-2 -2)" fill="#eaeaea"/>
</svg>
