<svg id="waste-bin" xmlns="http://www.w3.org/2000/svg" width="11.503" height="15.686" viewBox="0 0 11.503 15.686">
  <path id="Trazado_2101" data-name="Trazado 2101" d="M37.393,14.622a1.425,1.425,0,0,0,1.436,1.065h5.438A1.424,1.424,0,0,0,45.7,14.622L46.777,4.183H36.32Zm6.247-8.87a.523.523,0,0,1,1.046,0l-.523,7.843a.523.523,0,0,1-1.046,0Zm-2.614,0a.523.523,0,1,1,1.046,0v7.843a.523.523,0,1,1-1.046,0Zm-2.092-.523a.523.523,0,0,1,.523.523l.523,7.843a.523.523,0,0,1-1.046,0l-.523-7.843A.523.523,0,0,1,38.934,5.229Zm7.529-3.136h-2.3V1.046C44.163.253,43.907,0,43.117,0H39.98a.915.915,0,0,0-1.046,1.046V2.092h-2.3a.811.811,0,0,0-.837.785.811.811,0,0,0,.837.785h9.83a.811.811,0,0,0,.837-.785A.812.812,0,0,0,46.464,2.092Zm-3.346,0H39.98V1.046h3.137V2.092Z" transform="translate(-35.797)" fill="#575757" fill-rule="evenodd"/>
</svg>
