<svg xmlns="http://www.w3.org/2000/svg" width="61" height="72.596" viewBox="0 0 61 72.596">
  <g id="Grupo_7156" data-name="Grupo 7156" transform="translate(-32 -412.404)">
    <g id="list" transform="translate(32 412.404)">
      <g id="Grupo_4166" data-name="Grupo 4166" transform="translate(0)">
        <path id="Trazado_2110" data-name="Trazado 2110" d="M40.589,12.588V11.132A2.994,2.994,0,0,0,37.6,8.138H32.683a5.42,5.42,0,0,0,.642-2.586,5.546,5.546,0,1,0-11.092,0,5.42,5.42,0,0,0,.642,2.586h-4.03a2.993,2.993,0,0,0-2.993,2.993v1.456H9.176a4.54,4.54,0,0,0-4.539,4.541V61.884a4.542,4.542,0,0,0,4.539,4.543H47.259A4.542,4.542,0,0,0,51.8,61.884V17.128a4.542,4.542,0,0,0-4.541-4.541h-6.67ZM24.474,5.554a3.3,3.3,0,1,1,6.605,0,3.369,3.369,0,0,1-1.246,2.586H25.718A3.377,3.377,0,0,1,24.474,5.554ZM47.259,59.183a2.792,2.792,0,0,1-2.792,2.792h-32.5a2.792,2.792,0,0,1-2.792-2.792V19.92a2.791,2.791,0,0,1,2.792-2.792h3.88a2.224,2.224,0,0,0,2.223,2.225H38.362a2.222,2.222,0,0,0,2.223-2.225h3.882a2.794,2.794,0,0,1,2.792,2.792V59.183Z" transform="translate(-4.637)" fill="#575757"/>
        <circle id="Elipse_23" data-name="Elipse 23" cx="3.945" cy="3.945" r="3.945" transform="translate(8.965 23.262)" fill="#dd141d"/>
        <path id="Trazado_2111" data-name="Trazado 2111" d="M29.8,12.038H16.343a2.225,2.225,0,1,0,0,4.449H29.8a2.225,2.225,0,1,0,0-4.449Z" transform="translate(5.556 12.967)" fill="#575757"/>
        <circle id="Elipse_24" data-name="Elipse 24" cx="3.945" cy="3.945" r="3.945" transform="translate(8.965 34.452)" fill="#dd141d"/>
        <path id="Trazado_2112" data-name="Trazado 2112" d="M29.8,17.391H16.343a2.271,2.271,0,0,0,0,4.541H29.8a2.271,2.271,0,0,0,0-4.541Z" transform="translate(5.556 18.733)" fill="#575757"/>
        <circle id="Elipse_25" data-name="Elipse 25" cx="3.943" cy="3.943" r="3.943" transform="translate(8.967 46.413)" fill="#dd141d"/>
        <path id="Trazado_2113" data-name="Trazado 2113" d="M29.8,23.145H16.343a2.271,2.271,0,0,0,0,4.541H29.8a2.271,2.271,0,0,0,0-4.541Z" transform="translate(5.556 24.932)" fill="#575757"/>
      </g>
    </g>
    <g id="Elipse_26" data-name="Elipse 26" transform="translate(61 452)" fill="#ededed" stroke="#ededed" stroke-width="1">
      <ellipse cx="16" cy="16.5" rx="16" ry="16.5" stroke="none"/>
      <ellipse cx="16" cy="16.5" rx="15.5" ry="16" fill="none"/>
    </g>
    <g id="check" transform="translate(63.157 454.961)">
      <g id="Grupo_4168" data-name="Grupo 4168" transform="translate(0 0)">
        <g id="Grupo_4167" data-name="Grupo 4167">
          <path id="Trazado_2114" data-name="Trazado 2114" d="M25.447,22.244a1.122,1.122,0,0,0-1.122,1.122V24.5A11.04,11.04,0,0,1,13.285,35.53h-.007a11.04,11.04,0,0,1,.006-22.079h.007a10.971,10.971,0,0,1,4.487.956,1.122,1.122,0,1,0,.914-2.05,13.2,13.2,0,0,0-5.4-1.15h-.008a13.284,13.284,0,0,0-.007,26.569h.008A13.285,13.285,0,0,0,26.569,24.5V23.366A1.122,1.122,0,0,0,25.447,22.244Z" transform="translate(0 -11.206)" fill="#575757"/>
        </g>
      </g>
      <g id="Grupo_4170" data-name="Grupo 4170" transform="translate(8.513 1.223)">
        <g id="Grupo_4169" data-name="Grupo 4169" transform="translate(0 0)">
          <path id="Trazado_2115" data-name="Trazado 2115" d="M175.822,34.075a1.122,1.122,0,0,0-1.587,0L161.65,46.659,158.8,43.8a1.122,1.122,0,0,0-1.587,1.587l3.649,3.649a1.122,1.122,0,0,0,1.587,0l13.378-13.378A1.122,1.122,0,0,0,175.822,34.075Z" transform="translate(-156.879 -33.746)" fill="#dd141d"/>
        </g>
      </g>
    </g>
  </g>
</svg>
