<svg id="clock" xmlns="http://www.w3.org/2000/svg" width="68.958" height="66.194" viewBox="0 0 68.958 66.194">
  <g id="XMLID_386_" transform="translate(0 0)">
    <path id="XMLID_389_" d="M68.826,46.544A27.184,27.184,0,0,0,47.686,22.707V19.285a4.579,4.579,0,0,0-1.105-9.023h-9.7a4.579,4.579,0,0,0-1.105,9.023v3.432a27.044,27.044,0,0,0-13.264,7.3,27.336,27.336,0,0,0-2.287,2.6c-.034,0-.068-.005-.1-.005h-9.6a1.347,1.347,0,1,0,0,2.694H18.4a27,27,0,0,0-2.39,5.177H1.347a1.347,1.347,0,1,0,0,2.694h13.9a27.385,27.385,0,0,0-.668,5.177H8.62a1.347,1.347,0,0,0,0,2.694h6a27.345,27.345,0,0,0,.841,5.177H6.734a1.347,1.347,0,1,0,0,2.694h9.585A27.2,27.2,0,0,0,39.064,76.325q1.335.132,2.669.131A27.272,27.272,0,0,0,56.58,72.068a1.347,1.347,0,1,0-1.47-2.257,24.513,24.513,0,1,1,7.22-7.229,1.347,1.347,0,1,0,2.259,1.467A27.293,27.293,0,0,0,68.826,46.544ZM35,14.841a1.888,1.888,0,0,1,1.886-1.886h9.7a1.886,1.886,0,1,1,0,3.771h-9.7A1.888,1.888,0,0,1,35,14.841Zm3.474,7.412V19.421h6.521v2.828A27.443,27.443,0,0,0,38.472,22.254Z" transform="translate(0 -10.262)" fill="#575757"/>
    <path id="XMLID_391_" d="M437.117,425.5a1.347,1.347,0,1,0,.952.395A1.354,1.354,0,0,0,437.117,425.5Z" transform="translate(-377.078 -369.573)" fill="#575757"/>
    <path id="XMLID_394_" d="M175.766,144.609A20.894,20.894,0,1,0,196.66,165.5,20.917,20.917,0,0,0,175.766,144.609Zm0,39.094a18.2,18.2,0,1,1,18.2-18.2A18.221,18.221,0,0,1,175.766,183.7Z" transform="translate(-134.013 -126.514)" fill="#575757"/>
    <path id="XMLID_397_" d="M272.69,219.806l-6.671,6.671a4.175,4.175,0,0,0-3.7,0l-2.986-2.986a1.347,1.347,0,0,0-1.9,1.9l2.986,2.986a4.185,4.185,0,1,0,7.507,0l6.475-6.475h0l.2-.2a1.347,1.347,0,0,0-1.9-1.9Zm-8.52,11.916a1.491,1.491,0,1,1,1.491-1.491A1.493,1.493,0,0,1,264.17,231.722Z" transform="translate(-222.417 -191.242)" fill="#dd141d"/>
    <path id="XMLID_398_" d="M400.25,289.86H399a1.347,1.347,0,0,0,0,2.694h1.248a1.347,1.347,0,0,0,0-2.694Z" transform="translate(-344.096 -252.202)" fill="#575757"/>
    <path id="XMLID_399_" d="M195.677,289.616h-1.248a1.347,1.347,0,1,0,0,2.694h1.248a1.347,1.347,0,1,0,0-2.694Z" transform="translate(-167.076 -251.991)" fill="#575757"/>
    <path id="XMLID_400_" d="M301.47,186.76a1.347,1.347,0,0,0,1.347-1.347v-1.248a1.347,1.347,0,0,0-2.694,0v1.248A1.347,1.347,0,0,0,301.47,186.76Z" transform="translate(-259.701 -159.578)" fill="#575757"/>
    <path id="XMLID_424_" d="M301.226,387.393a1.347,1.347,0,0,0-1.347,1.347v1.248a1.347,1.347,0,1,0,2.694,0V388.74A1.347,1.347,0,0,0,301.226,387.393Z" transform="translate(-259.489 -336.599)" fill="#575757"/>
    <path id="XMLID_425_" d="M1.347,351.44a1.347,1.347,0,1,0,.952,2.3,1.347,1.347,0,0,0-.952-2.3Z" transform="translate(0 -305.488)" fill="#575757"/>
  </g>
</svg>
