<svg xmlns="http://www.w3.org/2000/svg" width="66.38" height="66.38" viewBox="0 0 66.38 66.38">
  <g id="Grupo_7194" data-name="Grupo 7194" transform="translate(62.26 -3)">
    <path id="Trazado_3240" data-name="Trazado 3240" d="M0,44.252c-.152-.159-.308-.316-.468-.468V22.453a1.145,1.145,0,0,0-1.144-1.144H-18.777V4.144A1.145,1.145,0,0,0-19.921,3H-42.807a1.145,1.145,0,0,0-1.144,1.144V21.309H-61.116a1.145,1.145,0,0,0-1.144,1.144V45.339a1.145,1.145,0,0,0,1.144,1.144h17.164V63.647a1.145,1.145,0,0,0,1.144,1.144h21.331A14.858,14.858,0,0,0-.468,65.26,14.858,14.858,0,0,0,0,44.252ZM-41.663,62.5V45.339a1.145,1.145,0,0,0-1.144-1.144H-59.971V23.6h17.164a1.145,1.145,0,0,0,1.144-1.144V5.289h20.6V22.453A1.145,1.145,0,0,0-19.921,23.6H-2.757V41.978a14.851,14.851,0,0,0-20.525,4.457,14.854,14.854,0,0,0,0,16.068Zm30.9,4.577A12.587,12.587,0,0,1-23.354,54.493,12.587,12.587,0,0,1-10.767,41.906,12.6,12.6,0,0,1,1.82,54.493,12.587,12.587,0,0,1-10.767,67.08Z" transform="translate(0)" fill="#575757"/>
    <g id="Grupo_7193" data-name="Grupo 7193" transform="translate(-57.874 16.776)">
      <g id="Grupo_7191" data-name="Grupo 7191" transform="translate(3.982 17.692)">
        <path id="Trazado_3241" data-name="Trazado 3241" d="M-15.237,48.809l-2.531-1.266a.707.707,0,0,1-.315-.949.7.7,0,0,1,.315-.316,1.684,1.684,0,0,1,1.506,0l1.024.513a1.145,1.145,0,0,0,1.536-.513,1.145,1.145,0,0,0-.513-1.536h0l-1.023-.511A3.976,3.976,0,0,0-15.871,44V42h-2.287v2a4,4,0,0,0-.632.229,3,3,0,0,0-1.339,4.02,3,3,0,0,0,1.339,1.339l2.531,1.266a.707.707,0,0,1,.316.949.709.709,0,0,1-.316.316,1.694,1.694,0,0,1-1.507,0l-1.023-.511a1.145,1.145,0,0,0-1.536.513,1.145,1.145,0,0,0,.513,1.536l1.023.51a4.017,4.017,0,0,0,.633.229v1.334h2.289V54.4a3.963,3.963,0,0,0,.632-.229,3,3,0,0,0,1.34-4.02,3,3,0,0,0-1.34-1.339Z" transform="translate(59.925 -28.841)" fill="#575757"/>
        <path id="Trazado_3242" data-name="Trazado 3242" d="M-16.148,39a10.3,10.3,0,0,0-10.3,10.3,10.3,10.3,0,0,0,10.3,10.3A10.3,10.3,0,0,0-5.85,49.3h0A10.311,10.311,0,0,0-16.148,39Zm0,18.309a8.01,8.01,0,0,1-8.01-8.01,8.01,8.01,0,0,1,8.01-8.01,8.01,8.01,0,0,1,8.01,8.01A8.019,8.019,0,0,1-16.148,57.309Z" transform="translate(59.059 -29.274)" fill="#575757"/>
        <circle id="Elipse_66" data-name="Elipse 66" cx="1.716" cy="1.716" r="1.716" fill="#dd141d"/>
      </g>
      <path id="Trazado_3243" data-name="Trazado 3243" d="M-44.694,15.039v.032a10.254,10.254,0,0,0-7.193,4.246,19.814,19.814,0,0,0-1.377,2.632,10.212,10.212,0,0,0-.585,3.344V28.84a5.722,5.722,0,0,0-4.462,6.75,5.722,5.722,0,0,0,6.75,4.462A5.72,5.72,0,0,0-47.1,33.3,5.719,5.719,0,0,0-51.56,28.84V25.293a7.9,7.9,0,0,1,.468-2.64v-.007a8.017,8.017,0,0,1,1.958-3.075h-.011c.023-.022.048-.038.071-.058.106-.106.184-.18.184-.18l.013.014a8.005,8.005,0,0,1,3.95-1.922l.007,0s.171-.037.415-.117V15.039Zm-4.577,19.408A3.433,3.433,0,0,1-52.7,37.88a3.433,3.433,0,0,1-3.433-3.433A3.433,3.433,0,0,1-52.7,31.014,3.433,3.433,0,0,1-49.272,34.447Z" transform="translate(58.427 -15.039)" fill="#dd141d"/>
      <g id="Grupo_7192" data-name="Grupo 7192" transform="translate(39.097 0.064)">
        <path id="Trazado_3244" data-name="Trazado 3244" d="M-15.537,23.088a9.8,9.8,0,0,0-.332-1.161,10.717,10.717,0,0,0-1.293-2.491,10.256,10.256,0,0,0-7.1-4.34v2.3c.038.008.065.024.1.031a2.157,2.157,0,0,1,.306.085,7.986,7.986,0,0,1,3.685,1.916l.027.008.081.084c.017.017.038.03.055.047h-.011A9.227,9.227,0,0,1-18.1,22.493l.027.072c.007.025.021.049.027.073,0,.007,0,.009,0,.015.068.195.133.391.184.59a4.571,4.571,0,0,0-3.161,4.33v6.866a1.145,1.145,0,0,0,1.144,1.144h1.144a1.144,1.144,0,0,0,1.144-1.144,1.144,1.144,0,0,0-1.144-1.144V27.573a2.289,2.289,0,0,1,2.289-2.289,2.288,2.288,0,0,1,2.289,2.289v5.721A1.145,1.145,0,0,0-15.3,34.439a1.145,1.145,0,0,0,1.144,1.144h1.144a1.144,1.144,0,0,0,1.144-1.144V27.573A4.584,4.584,0,0,0-15.537,23.088Z" transform="translate(24.26 -15.095)" fill="#dd141d"/>
      </g>
    </g>
  </g>
</svg>
