<svg xmlns="http://www.w3.org/2000/svg" width="51.342" height="47.761" viewBox="0 0 51.342 47.761">
  <g id="Grupo_7196" data-name="Grupo 7196" transform="translate(-35.287 -29.001)">
    <g id="Grupo_7195" data-name="Grupo 7195" transform="translate(35.287 29.001)">
      <rect id="Rectángulo_739" data-name="Rectángulo 739" width="2.388" height="2.388" transform="translate(5.97 22.686)" fill="#575757"/>
      <rect id="Rectángulo_740" data-name="Rectángulo 740" width="2.388" height="2.388" transform="translate(10.746 22.686)" fill="#575757"/>
      <rect id="Rectángulo_741" data-name="Rectángulo 741" width="2.388" height="2.388" transform="translate(15.522 22.686)" fill="#575757"/>
      <rect id="Rectángulo_742" data-name="Rectángulo 742" width="2.388" height="2.388" transform="translate(20.298 22.686)" fill="#575757"/>
      <rect id="Rectángulo_743" data-name="Rectángulo 743" width="2.388" height="2.388" transform="translate(25.074 22.686)" fill="#575757"/>
      <rect id="Rectángulo_744" data-name="Rectángulo 744" width="2.388" height="2.388" transform="translate(29.85 22.686)" fill="#575757"/>
      <rect id="Rectángulo_745" data-name="Rectángulo 745" width="2.388" height="2.388" transform="translate(5.97 27.462)" fill="#575757"/>
      <rect id="Rectángulo_746" data-name="Rectángulo 746" width="2.388" height="2.388" transform="translate(10.746 27.462)" fill="#575757"/>
      <rect id="Rectángulo_747" data-name="Rectángulo 747" width="2.388" height="2.388" transform="translate(15.522 27.462)" fill="#575757"/>
      <rect id="Rectángulo_748" data-name="Rectángulo 748" width="2.388" height="2.388" transform="translate(20.298 27.462)" fill="#575757"/>
      <rect id="Rectángulo_749" data-name="Rectángulo 749" width="2.388" height="2.388" transform="translate(25.074 27.462)" fill="#575757"/>
      <rect id="Rectángulo_750" data-name="Rectángulo 750" width="2.388" height="2.388" transform="translate(5.97 32.238)" fill="#575757"/>
      <rect id="Rectángulo_751" data-name="Rectángulo 751" width="2.388" height="2.388" transform="translate(10.746 32.238)" fill="#575757"/>
      <rect id="Rectángulo_752" data-name="Rectángulo 752" width="2.388" height="2.388" transform="translate(15.522 32.238)" fill="#575757"/>
      <rect id="Rectángulo_753" data-name="Rectángulo 753" width="2.388" height="2.388" transform="translate(20.298 32.238)" fill="#575757"/>
      <rect id="Rectángulo_754" data-name="Rectángulo 754" width="2.388" height="2.388" transform="translate(5.97 37.014)" fill="#575757"/>
      <rect id="Rectángulo_755" data-name="Rectángulo 755" width="2.388" height="2.388" transform="translate(10.746 37.014)" fill="#575757"/>
      <rect id="Rectángulo_756" data-name="Rectángulo 756" width="2.388" height="2.388" transform="translate(15.522 37.014)" fill="#575757"/>
      <path id="Trazado_3245" data-name="Trazado 3245" d="M71.669,54.406H69.281V52.018a1.194,1.194,0,0,0-1.194-1.194H64.5a1.194,1.194,0,0,0-1.194,1.194v2.388H60.922A1.192,1.192,0,0,0,59.729,55.6v3.582a1.193,1.193,0,0,0,1.193,1.194H63.31v2.388A1.194,1.194,0,0,0,64.5,63.958h3.582a1.194,1.194,0,0,0,1.194-1.194V60.376h2.388a1.194,1.194,0,0,0,1.194-1.194V55.6A1.193,1.193,0,0,0,71.669,54.406Zm-1.194,3.581H68.087a1.194,1.194,0,0,0-1.194,1.194V61.57H65.7V59.182A1.194,1.194,0,0,0,64.5,57.987H62.116V56.793H64.5A1.194,1.194,0,0,0,65.7,55.6V53.212h1.194V55.6a1.194,1.194,0,0,0,1.194,1.194h2.388Z" transform="translate(-26.296 -20.974)" fill="#dd141d"/>
      <path id="Trazado_3246" data-name="Trazado 3246" d="M86.629,40.345a6.573,6.573,0,0,0-6.567-6.567H78.271v-.6a4.179,4.179,0,0,0-8.359,0v.6H52v-.6a4.179,4.179,0,0,0-8.359,0v.6H41.854a6.574,6.574,0,0,0-6.567,6.567V70.194a6.575,6.575,0,0,0,6.567,6.568H80.062a6.574,6.574,0,0,0,6.567-6.568ZM72.3,33.18a1.791,1.791,0,0,1,3.582,0v3.582a1.791,1.791,0,0,1-3.582,0V33.18Zm-26.268,0a1.791,1.791,0,0,1,3.582,0v3.582a1.791,1.791,0,0,1-3.582,0ZM37.675,70.194V45.717h35.82a1.194,1.194,0,1,0,0-2.388H37.675V40.345a4.184,4.184,0,0,1,4.179-4.18h1.791v.6a4.179,4.179,0,0,0,8.359,0v-.6H69.913v.6a4.179,4.179,0,0,0,8.359,0v-.6h1.791a4.184,4.184,0,0,1,4.179,4.18V58.1A11.943,11.943,0,0,0,66.793,74.374H41.854A4.184,4.184,0,0,1,37.675,70.194Zm42.387,4.18H70.289A9.552,9.552,0,1,1,84.241,62v8.189A4.184,4.184,0,0,1,80.062,74.374Z" transform="translate(-35.287 -29.001)" fill="#575757"/>
    </g>
  </g>
</svg>
