<svg xmlns="http://www.w3.org/2000/svg" width="38.217" height="49.848" viewBox="0 0 38.217 49.848">
  <g id="document" transform="translate(-0.109)">
    <path id="Trazado_8358" data-name="Trazado 8358" d="M.109,57.733v43.2a.831.831,0,0,0,.831.831H32.51a.831.831,0,0,0,.831-.831V66.041c0-.018-.009-.034-.011-.052a.783.783,0,0,0-.042-.214c-.009-.027-.016-.052-.027-.078a.822.822,0,0,0-.166-.243l-8.308-8.308a.806.806,0,0,0-.244-.166.75.75,0,0,0-.076-.027.823.823,0,0,0-.215-.043c-.014,0-.03-.007-.048-.007H.94A.831.831,0,0,0,.109,57.733ZM30.5,65.21H25.033V59.739ZM1.771,58.564h21.6v7.477a.831.831,0,0,0,.831.831H31.68V100.1H1.771Zm0,0" transform="translate(0 -51.917)" fill="#606060"/>
    <path id="Trazado_8359" data-name="Trazado 8359" d="M86.917,43.2v1.661h2.492a.831.831,0,0,0,.831-.831V.831A.831.831,0,0,0,89.409,0H57.839a.831.831,0,0,0-.831.831V3.323H58.67V1.661H88.578V43.2Zm0,0" transform="translate(-51.914 0)" fill="#606060"/>
    <path id="Trazado_8360" data-name="Trazado 8360" d="M75.977,189.668H95.915v1.661H75.977Zm0,0" transform="translate(-69.221 -173.052)" fill="#606060"/>
    <path id="Trazado_8361" data-name="Trazado 8361" d="M75.977,132.766h6.646v1.662H75.977Zm0,0" transform="translate(-69.221 -121.135)" fill="#606060"/>
    <path id="Trazado_8362" data-name="Trazado 8362" d="M75.977,246.566H89.269v1.662H75.977Zm0,0" transform="translate(-69.221 -224.966)" fill="#606060"/>
    <path id="Trazado_8363" data-name="Trazado 8363" d="M246.676,246.566h4.985v1.662h-4.985Zm0,0" transform="translate(-224.966 -224.966)" fill="#606060"/>
    <path id="Trazado_8364" data-name="Trazado 8364" d="M75.977,303.465H95.915v1.662H75.977Zm0,0" transform="translate(-69.221 -276.88)" fill="#dd141d"/>
    <path id="Trazado_8365" data-name="Trazado 8365" d="M75.977,417.266H95.915v1.662H75.977Zm0,0" transform="translate(-69.221 -380.711)" fill="#dd141d"/>
    <path id="Trazado_8366" data-name="Trazado 8366" d="M161.324,360.367h12.462v1.661H161.324Zm0,0" transform="translate(-147.091 -328.797)" fill="#dd141d"/>
    <path id="Trazado_8367" data-name="Trazado 8367" d="M75.977,360.367h5.816v1.661H75.977Zm0,0" transform="translate(-69.221 -328.797)" fill="#606060"/>
    <path id="Trazado_8368" data-name="Trazado 8368" d="M75.977,474.168H79.3v1.661H75.977Zm0,0" transform="translate(-69.221 -432.628)" fill="#606060"/>
    <path id="Trazado_8369" data-name="Trazado 8369" d="M132.875,474.168h14.954v1.661H132.875Zm0,0" transform="translate(-121.135 -432.628)" fill="#dd141d"/>
  </g>
</svg>
