<svg xmlns="http://www.w3.org/2000/svg" width="16.703" height="17.956" viewBox="0 0 16.703 17.956">
  <g id="noun_Search_Document_2417689" data-name="noun_Search Document_2417689" transform="translate(51.486 -66.628)">
    <g id="Grupo_12509" data-name="Grupo 12509" transform="translate(-61.486 -892.734)">
      <path id="Trazado_4197" data-name="Trazado 4197" d="M10.561,959.363a.649.649,0,0,0-.561.626v16.7a.651.651,0,0,0,.627.626H22.743a.651.651,0,0,0,.627-.626v-3.086l2.272,2.27a.628.628,0,0,0,.888-.887l-2.363-2.368a4.355,4.355,0,0,0-.8-6.048v-2.825a.634.634,0,0,0-.183-.444l-3.76-3.758a.634.634,0,0,0-.444-.183H15.431a.627.627,0,1,0,0,1.253h2.716v3.334a.651.651,0,0,0,.627.626h3.342v1.3a4.352,4.352,0,0,0-4.72,1.207H12.925a.626.626,0,1,0,0,1.253H16.6a4.339,4.339,0,0,0-.287,1.044H12.925a.626.626,0,1,0,0,1.253h3.388a4.376,4.376,0,0,0,.287,1.044H12.925a.626.626,0,1,0,0,1.253H17.4a4.41,4.41,0,0,0,1.4,1.044H12.925a.626.626,0,1,0,0,1.253h7.52a.658.658,0,0,0,.594-.848,4.344,4.344,0,0,0,1.077-.235v1.925H11.253v-15.45h2.089a.626.626,0,1,0,0-1.253H10.561Zm8.839,1.925,2.037,2.036H19.4Zm1.253,5.585A3.132,3.132,0,1,1,17.52,970,3.123,3.123,0,0,1,20.654,966.873Z" transform="translate(0 0)" fill="#5b5b5b"/>
    </g>
    <g id="Elipse_67" data-name="Elipse 67" transform="translate(-45 73)" fill="#fff" stroke="#838383" stroke-width="1.3">
      <circle cx="4.5" cy="4.5" r="4.5" stroke="none"/>
      <circle cx="4.5" cy="4.5" r="3.85" fill="none"/>
    </g>
  </g>
</svg>
