<svg id="noun_House_Document_1464878" data-name="noun_House Document_1464878" xmlns="http://www.w3.org/2000/svg" width="137.376" height="137.376" viewBox="0 0 137.376 137.376">
  <path id="Trazado_4192" data-name="Trazado 4192" d="M130.217,52.6V45.5c0-.016-.009-.027-.009-.044a2.25,2.25,0,0,0-.156-.772,1.784,1.784,0,0,0-.092-.188,2.363,2.363,0,0,0-.128-.266L102.358,3.021A2.289,2.289,0,0,0,100.453,2H31.765a2.278,2.278,0,0,0-1.843.966c-.016.023-.048.03-.062.055L2.385,44.234a2.183,2.183,0,0,0-.128.266,2.029,2.029,0,0,0-.092.188,2.252,2.252,0,0,0-.156.774c0,.014-.009.025-.009.041v54.95A11.461,11.461,0,0,0,13.448,111.9H66.109v16.027a11.461,11.461,0,0,0,11.448,11.448H118.77a11.45,11.45,0,0,0,11.237-9.369,11.45,11.45,0,0,0,9.369-11.237V63.819A11.469,11.469,0,0,0,130.217,52.6Zm-6.567-9.39H60.465L36.042,6.579H99.225ZM31.765,8.418l23.2,34.8H8.567ZM6.579,100.453V47.792H56.95v59.53H45.5V75.267a2.288,2.288,0,0,0-2.29-2.29h-22.9a2.288,2.288,0,0,0-2.29,2.29v32.054H13.448A6.877,6.877,0,0,1,6.579,100.453Zm16.027,6.869V77.557H40.923v29.765Zm43.5-34.344v34.344H61.53V47.792h64.109v4.579H86.715A11.45,11.45,0,0,0,75.478,61.74,11.45,11.45,0,0,0,66.109,72.978Zm59.53,54.95a6.877,6.877,0,0,1-6.869,6.869H77.557a6.877,6.877,0,0,1-6.869-6.869V72.978a6.877,6.877,0,0,1,6.869-6.869h32.054V79.846a2.288,2.288,0,0,0,2.29,2.29h13.738ZM122.4,77.557h-8.21V69.346Zm12.4,41.213a6.859,6.859,0,0,1-4.579,6.448V79.846a2.286,2.286,0,0,0-.673-1.621L113.524,62.2a2.288,2.288,0,0,0-1.623-.675H80.268a6.859,6.859,0,0,1,6.448-4.579h41.213a6.877,6.877,0,0,1,6.869,6.869Z" transform="translate(-2 -2)" fill="#575757"/>
  <rect id="Rectángulo_1527" data-name="Rectángulo 1527" width="28.998" height="4.143" transform="translate(74.882 70.739)" fill="#575757"/>
  <rect id="Rectángulo_1528" data-name="Rectángulo 1528" width="28.998" height="4.143" transform="translate(74.882 79.024)" fill="#575757"/>
  <rect id="Rectángulo_1529" data-name="Rectángulo 1529" width="12.428" height="4.143" transform="translate(103.879 91.452)" fill="#575757"/>
  <rect id="Rectángulo_1530" data-name="Rectángulo 1530" width="12.428" height="4.143" transform="translate(103.879 99.737)" fill="#575757"/>
  <rect id="Rectángulo_1531" data-name="Rectángulo 1531" width="12.428" height="4.143" transform="translate(103.879 112.165)" fill="#575757"/>
  <rect id="Rectángulo_1532" data-name="Rectángulo 1532" width="12.428" height="4.143" transform="translate(103.879 120.45)" fill="#575757"/>
  <path id="Trazado_4193" data-name="Trazado 4193" d="M42.781,53.412l-5.25-5.25L34.293,51.4l6.869,6.869a2.288,2.288,0,0,0,3.237,0L58.137,44.531,54.9,41.293Z" transform="translate(39.645 48.672)" fill="#dd141d"/>
  <path id="Trazado_4194" data-name="Trazado 4194" d="M42.781,61.412l-5.25-5.25L34.293,59.4l6.869,6.869a2.288,2.288,0,0,0,3.237,0L58.137,52.531,54.9,49.293Z" transform="translate(39.645 58.989)" fill="#dd141d"/>
</svg>
