<svg xmlns="http://www.w3.org/2000/svg" width="27.962" height="21.773" viewBox="0 0 27.962 21.773">
  <path id="noun_House_132649" d="M38.928,45.576l-5.1-6.918c-.006-.008-.013-.013-.019-.02a.68.68,0,0,0-.088-.092l-.008-.007a.686.686,0,0,0-.441-.163H23.406V35.792a.692.692,0,0,0-.692-.692H20.166a.692.692,0,0,0-.692.692v2.585H16.889a.692.692,0,0,0-.557.281l-5.1,6.918s0,.006,0,.009a.685.685,0,0,0-.087.169c0,.012-.008.025-.012.037a.687.687,0,0,0-.031.194V56.181a.692.692,0,0,0,.692.692h16.02a.683.683,0,0,0,.182-.027.683.683,0,0,0,.182.027H38.371a.692.692,0,0,0,.692-.692V45.986A.692.692,0,0,0,38.928,45.576Zm-10.3-5.816L24.55,45.295H22.991l4.078-5.534Zm-4.835,0H25.35l-4.078,5.534H19.714Zm-2.935-3.277h1.165v1.893H20.858Zm-.342,3.277h1.558L18,45.295H16.438Zm-3.277,0H18.8l-4.078,5.534H13.161ZM27.484,55.489H20.728a.687.687,0,0,0,.13-.4V51.084a.692.692,0,0,0-.692-.692h-.728a.692.692,0,0,0-.692.692v4.005a.687.687,0,0,0,.13.4H12.484V46.678h15ZM27.825,45.3H26.268l4.078-5.534H31.9Zm9.854,10.193H28.868V46.214l4.406-5.979,4.406,5.979Zm-5.461-6.226v2.913a.692.692,0,0,0,.692.692h.728a.692.692,0,0,0,.692-.692V49.263a.692.692,0,0,0-.692-.692h-.728A.692.692,0,0,0,32.218,49.263Zm-9.5,3.6H24.9a.692.692,0,0,0,.692-.692V49.263a.692.692,0,0,0-.692-.692H22.715a.692.692,0,0,0-.692.692v2.913A.692.692,0,0,0,22.715,52.868Zm-8.01,0h2.185a.692.692,0,0,0,.692-.692V49.263a.692.692,0,0,0-.692-.692H14.7a.692.692,0,0,0-.692.692v2.913A.692.692,0,0,0,14.7,52.868Z" transform="translate(-11.1 -35.1)" fill="#575757"/>
</svg>
