<svg xmlns="http://www.w3.org/2000/svg" width="24.686" height="21.773" viewBox="0 0 24.686 21.773">
  <path id="noun_House_132645" d="M40.651,45.576l-5.1-6.918c-.005-.007-.012-.011-.017-.018a.719.719,0,0,0-.091-.094l-.008-.006A.683.683,0,0,0,35,38.377h-6.59V35.792a.692.692,0,0,0-.692-.692H25.166a.692.692,0,0,0-.692.692v2.585H21.889a.691.691,0,0,0-.557.281l-5.1,6.918,0,.008a.684.684,0,0,0-.088.171c0,.012-.008.024-.011.037a.677.677,0,0,0-.031.195V56.181a.692.692,0,0,0,.692.692H29.535a.683.683,0,0,0,.182-.027.683.683,0,0,0,.182.027H40.094a.692.692,0,0,0,.692-.692V45.986A.688.688,0,0,0,40.651,45.576ZM28.792,39.76h1.558l-4.078,5.534H24.714Zm-2.935-3.277h1.165v1.893H25.858Zm-.342,3.277h1.558L23,45.295H21.438Zm-3.277,0H23.8l-4.078,5.534H18.161Zm6.969,15.729H24.272a.686.686,0,0,0,.129-.4V51.084a.692.692,0,0,0-.692-.692h-.728a.692.692,0,0,0-.692.692v4.005a.689.689,0,0,0,.129.4H17.484V46.678H29.207ZM29.549,45.3H27.991l4.078-5.534h1.558ZM39.4,55.489H30.591V46.214L35,40.235,39.4,46.214ZM19.7,52.868h.728a.692.692,0,0,0,.692-.692V49.263a.692.692,0,0,0-.692-.692H19.7a.692.692,0,0,0-.692.692v2.913A.692.692,0,0,0,19.7,52.868Zm6.554,0h.728a.692.692,0,0,0,.692-.692V49.263a.692.692,0,0,0-.692-.692h-.728a.692.692,0,0,0-.692.692v2.913A.692.692,0,0,0,26.258,52.868Zm10.559,0h.728a.692.692,0,0,0,.692-.692V49.263a.692.692,0,0,0-.692-.692h-.728a.692.692,0,0,0-.692.692v2.913A.692.692,0,0,0,36.817,52.868Zm-3.277-4.3h-.728a.692.692,0,0,0-.692.692v2.913a.692.692,0,0,0,.692.692h.728a.692.692,0,0,0,.692-.692V49.263A.692.692,0,0,0,33.54,48.571Z" transform="translate(-16.1 -35.1)" fill="#575757"/>
</svg>
