<svg xmlns="http://www.w3.org/2000/svg" width="24.686" height="20.316" viewBox="0 0 24.686 20.316">
  <path id="noun_House_132644" d="M40.651,49.576l-5.1-6.918c-.005-.007-.012-.011-.017-.018a.719.719,0,0,0-.091-.094l-.008-.006A.683.683,0,0,0,35,42.377h-6.59V39.792a.692.692,0,0,0-.692-.692H25.166a.692.692,0,0,0-.692.692v2.585H21.889a.691.691,0,0,0-.557.281l-5.1,6.918,0,.008a.684.684,0,0,0-.088.171c0,.012-.008.024-.011.037a.677.677,0,0,0-.031.195v8.738a.692.692,0,0,0,.692.692H29.535a.683.683,0,0,0,.182-.027.683.683,0,0,0,.182.027H40.094a.692.692,0,0,0,.692-.692V49.986A.688.688,0,0,0,40.651,49.576ZM28.792,43.76h1.558l-4.078,5.534H24.714Zm-2.935-3.277h1.165v1.893H25.858Zm-.342,3.277h1.558L23,49.295H21.438Zm-3.277,0H23.8l-4.078,5.534H18.161Zm6.969,14.272H17.484V50.678H29.207Zm.341-8.737H27.991l4.078-5.534h1.558ZM39.4,58.033H36.049c0-.012,0-.024,0-.036V53.991a.692.692,0,0,0-.692-.692h-.728a.692.692,0,0,0-.692.692V58c0,.012,0,.024,0,.036H30.591V50.214L35,44.235,39.4,50.214ZM19.34,56.5h2.913a.692.692,0,0,0,.692-.692V52.9a.692.692,0,0,0-.692-.692H19.34a.692.692,0,0,0-.692.692v2.913A.692.692,0,0,0,19.34,56.5Zm5.1,0h2.913a.692.692,0,0,0,.692-.692V52.9a.692.692,0,0,0-.692-.692H24.438a.692.692,0,0,0-.692.692v2.913A.692.692,0,0,0,24.438,56.5Z" transform="translate(-16.1 -39.1)" fill="#575757"/>
</svg>
