<svg xmlns="http://www.w3.org/2000/svg" width="91.488" height="91.487" viewBox="0 0 91.488 91.487">
  <g id="noun_Magnifying_Glass_1790522" data-name="noun_Magnifying Glass_1790522" transform="translate(0.15 0.15)">
    <path id="Trazado_4270" data-name="Trazado 4270" d="M13.123,10.687a24.317,24.317,0,0,0,0,34.387l2.147-2.147a21.277,21.277,0,0,1,0-30.092Z" transform="translate(0.08 2.515)" fill="#e1081b"/>
    <path id="Trazado_4271" data-name="Trazado 4271" d="M90.8,79.068,69.722,58a8.155,8.155,0,0,0-5.836-2.386,7.994,7.994,0,0,0-2.006.289l-5.213-5.228-.03-.03a30.669,30.669,0,0,0,4.62-8.739,33.34,33.34,0,0,0,.881-3.268c.091-.41.167-.805.228-1.216s.137-.821.182-1.231c.046-.35.091-.714.122-1.064.076-.912.122-1.824.122-2.736a30.4,30.4,0,1,0-30.4,30.4c.912,0,1.824-.046,2.736-.122.35-.03.714-.076,1.064-.122q.616-.068,1.231-.182c.41-.061.821-.137,1.216-.228a33.344,33.344,0,0,0,3.268-.881,30.548,30.548,0,0,0,8.754-4.62l5.243,5.243A8.137,8.137,0,0,0,58,69.722L79.068,90.8a8.177,8.177,0,0,0,5.79,2.386h.061a8.3,8.3,0,0,0,8.268-8.268A8.164,8.164,0,0,0,90.8,79.068ZM32.4,59.752A27.356,27.356,0,1,1,59.752,32.4,27.356,27.356,0,0,1,32.4,59.752Zm25.654-1.7a8.8,8.8,0,0,0-.76.927l-4.255-4.271-.03-.03c.578-.532,1.14-1.094,1.672-1.672l.03.03,4.271,4.255a8.8,8.8,0,0,0-.927.76Z" transform="translate(-2 -2)" fill="#575757" stroke="#575757" stroke-width="0.3"/>
  </g>
</svg>
