<svg id="paperclip" xmlns="http://www.w3.org/2000/svg" width="22.708" height="24.942" viewBox="0 0 22.708 24.942">
  <g id="Grupo_3966" data-name="Grupo 3966" transform="translate(0 0)">
    <g id="Grupo_3965" data-name="Grupo 3965" transform="translate(0 0)">
      <path id="Trazado_2049" data-name="Trazado 2049" d="M43.827,1.808A6.437,6.437,0,0,0,38.581.032a9.011,9.011,0,0,0-5.5,2.671L25.912,9.869a.633.633,0,0,0,.9.9L33.974,3.6A7.744,7.744,0,0,1,38.7,1.294,5.192,5.192,0,0,1,42.931,2.7a5.193,5.193,0,0,1,1.41,4.236,7.744,7.744,0,0,1-2.306,4.722l-1.807,1.807h0l-8.509,8.509c-1.976,1.976-4.889,2.277-6.494.672A3.739,3.739,0,0,1,24.213,19.6,5.649,5.649,0,0,1,25.9,16.155l4.487-4.487h0l5.83-5.83a3.555,3.555,0,0,1,2.165-1.061,2.285,2.285,0,0,1,1.865.614c.988.988.787,2.8-.448,4.031L32.63,16.588a.633.633,0,0,0,.9.9l7.166-7.166c1.729-1.729,1.93-4.341.448-5.822a3.529,3.529,0,0,0-2.876-.979,4.823,4.823,0,0,0-2.947,1.427l-5.83,5.83L25,15.26a6.917,6.917,0,0,0-2.049,4.225,4.983,4.983,0,0,0,1.378,4.061,4.914,4.914,0,0,0,3.528,1.4,6.825,6.825,0,0,0,4.758-2.068l5.838-5.838h0l4.479-4.479a9.012,9.012,0,0,0,2.671-5.5A6.437,6.437,0,0,0,43.827,1.808Z" transform="translate(-22.927 0)" fill="#575757"/>
    </g>
  </g>
  <g id="Grupo_3968" data-name="Grupo 3968" transform="translate(8.011 17.447)">
    <g id="Grupo_3967" data-name="Grupo 3967">
      <path id="Trazado_2050" data-name="Trazado 2050" d="M192.006,364.679a.847.847,0,0,0-.127-.1.86.86,0,0,0-.145-.077.849.849,0,0,0-.157-.048.829.829,0,0,0-.328,0,.868.868,0,0,0-.157.048.85.85,0,0,0-.144.077.792.792,0,0,0-.232.232.84.84,0,0,0-.125.3.851.851,0,0,0,0,.327.844.844,0,0,0,.048.157.841.841,0,0,0,.181.272.846.846,0,0,0,.128.1.854.854,0,0,0,.144.077.871.871,0,0,0,.157.048.856.856,0,0,0,.327,0,.851.851,0,0,0,.157-.048.862.862,0,0,0,.145-.077.8.8,0,0,0,.127-.1.841.841,0,0,0,.1-.127.906.906,0,0,0,.077-.145.845.845,0,0,0,.048-.157.83.83,0,0,0,.017-.163A.846.846,0,0,0,192.006,364.679Z" transform="translate(-190.576 -364.435)" fill="#575757"/>
    </g>
  </g>
</svg>
