<svg id="proyecto-de-ley" xmlns="http://www.w3.org/2000/svg" width="15.889" height="15.704" viewBox="0 0 15.889 15.704">
  <path id="Trazado_2110" data-name="Trazado 2110" d="M124.488,282.412a.364.364,0,1,0-.363.35A.357.357,0,0,0,124.488,282.412Zm0,0" transform="translate(-119.522 -272.007)" fill="#575757"/>
  <path id="Trazado_2111" data-name="Trazado 2111" d="M124.125,212.527a.35.35,0,1,0,.363.35A.357.357,0,0,0,124.125,212.527Zm0,0" transform="translate(-119.522 -204.954)" fill="#575757"/>
  <path id="Trazado_2112" data-name="Trazado 2112" d="M124.488,143.342a.364.364,0,1,0-.363.35A.357.357,0,0,0,124.488,143.342Zm0,0" transform="translate(-119.522 -137.902)" fill="#575757"/>
  <path id="Trazado_2113" data-name="Trazado 2113" d="M270.006.395a3.45,3.45,0,0,0-3.377,3.519,3.38,3.38,0,1,0,6.754,0A3.454,3.454,0,0,0,270.006.395Zm-.016,3.268a1.145,1.145,0,0,1,1.121,1.061,1.167,1.167,0,0,1-.907,1.264v.329a.24.24,0,1,1-.48,0V5.976a1.167,1.167,0,0,1-.861-1.14.24.24,0,1,1,.48,0,.647.647,0,1,0,.646-.674,1.144,1.144,0,0,1-1.118-1.034,1.171,1.171,0,0,1,.853-1.28V1.533a.24.24,0,1,1,.48,0v.3a1.164,1.164,0,0,1,.912,1.152.24.24,0,1,1-.48,0A.661.661,0,0,0,270,2.315a.223.223,0,0,1-.036,0h-.022a.675.675,0,0,0,.048,1.345Zm0,0" transform="translate(-257.495 -0.395)" fill="#575757"/>
  <path id="Trazado_2114" data-name="Trazado 2114" d="M8.641,366.848a2.252,2.252,0,0,1-.625-1.562v-1H0v1.005A1.682,1.682,0,0,0,1.644,367H8.8A1.1,1.1,0,0,1,8.641,366.848Zm0,0" transform="translate(0 -351.295)" fill="#575757"/>
  <path id="Trazado_2115" data-name="Trazado 2115" d="M71.848,78.284h-2.9a.25.25,0,0,1,0-.5h2.642a4.1,4.1,0,0,1-.349-1.67,4.318,4.318,0,0,1,.083-.829H64.864L64.8,85.1h6.049a.214.214,0,0,1,.163.066.233.233,0,0,1,.064.17V86.6a1.686,1.686,0,0,0,1.648,1.712h.005a1.675,1.675,0,0,0,1.636-1.708V80.078A3.8,3.8,0,0,1,71.848,78.284Zm-4.664,5.582a.849.849,0,1,1,.843-.85A.847.847,0,0,1,67.184,83.866Zm0-2.482a.849.849,0,1,1,.843-.849A.847.847,0,0,1,67.184,81.384Zm0-2.482a.849.849,0,1,1,.843-.85A.847.847,0,0,1,67.184,78.9ZM72.6,83.282H68.943a.25.25,0,0,1,0-.5H72.6a.25.25,0,0,1,0,.5Zm.24-2.749a.245.245,0,0,1-.24.25H68.943a.25.25,0,0,1,0-.5H72.6A.245.245,0,0,1,72.837,80.533Zm0,0" transform="translate(-62.581 -72.612)" fill="#575757"/>
</svg>
