<svg width="371" height="354" xmlns="http://www.w3.org/2000/svg">
 <!-- Created with Method Draw - http://github.com/duopixel/Method-Draw/ -->

 <g>
  <title>background</title>
  <rect fill="none" id="canvas_background" height="356" width="373" y="-1" x="-1"/>
  <g display="none" overflow="visible" y="0" x="0" height="100%" width="100%" id="canvasGrid">
   <rect fill="url(#gridpattern)" stroke-width="0" y="3" x="3" height="400" width="580"/>
  </g>
 </g>
 <g>
  <title>Layer 1</title>
  <path id="svg_5" fill="#dd141d" d="m203.319629,11.133139l41.825175,84.748773c2.908501,5.894356 8.532119,9.978634 15.03757,10.92235l93.528424,13.591055c16.383525,2.382496 22.919917,22.509943 11.069322,34.058858l-67.6768,65.967282c-4.703108,4.587078 -6.853543,11.200824 -5.739649,17.675333l15.97355,93.149391c2.800206,16.313907 -14.325915,28.75239 -28.976716,21.055692l-83.65035,-43.975609c-5.817002,-3.055473 -12.771105,-3.055473 -18.588107,0l-83.65035,43.975609c-14.650801,7.704434 -31.776922,-4.741785 -28.976716,-21.055692l15.97355,-93.149391c1.113894,-6.474509 -1.03654,-13.088255 -5.739649,-17.675333l-67.6768,-65.967282c-11.850595,-11.556651 -5.314203,-31.684098 11.069322,-34.058858l93.528424,-13.591055c6.505451,-0.943716 12.129069,-5.027994 15.03757,-10.92235l41.825175,-84.748773c7.317665,-14.844185 28.481652,-14.844185 35.807053,0z"/>
  <g transform="matrix(7.73537543417865,0,0,7.73537543417865,0,0) " id="svg_6"/>
  <g transform="matrix(7.73537543417865,0,0,7.73537543417865,0,0) " id="svg_7"/>
  <g transform="matrix(7.73537543417865,0,0,7.73537543417865,0,0) " id="svg_8"/>
  <g transform="matrix(7.73537543417865,0,0,7.73537543417865,0,0) " id="svg_9"/>
  <g transform="matrix(7.73537543417865,0,0,7.73537543417865,0,0) " id="svg_10"/>
  <g transform="matrix(7.73537543417865,0,0,7.73537543417865,0,0) " id="svg_11"/>
  <g transform="matrix(7.73537543417865,0,0,7.73537543417865,0,0) " id="svg_12"/>
  <g transform="matrix(7.73537543417865,0,0,7.73537543417865,0,0) " id="svg_13"/>
  <g transform="matrix(7.73537543417865,0,0,7.73537543417865,0,0) " id="svg_14"/>
  <g transform="matrix(7.73537543417865,0,0,7.73537543417865,0,0) " id="svg_15"/>
  <g transform="matrix(7.73537543417865,0,0,7.73537543417865,0,0) " id="svg_16"/>
  <g transform="matrix(7.73537543417865,0,0,7.73537543417865,0,0) " id="svg_17"/>
  <g transform="matrix(7.73537543417865,0,0,7.73537543417865,0,0) " id="svg_18"/>
  <g transform="matrix(7.73537543417865,0,0,7.73537543417865,0,0) " id="svg_19"/>
 </g>
</svg>