<svg xmlns="http://www.w3.org/2000/svg" width="31.643" height="31.641" viewBox="0 0 31.643 31.641">
  <g id="telephone" transform="translate(-0.002 -0.02)">
    <g id="Grupo_14950" data-name="Grupo 14950" transform="translate(0.002 1.696)">
      <g id="Grupo_14949" data-name="Grupo 14949" transform="translate(0)">
        <path id="Trazado_8352" data-name="Trazado 8352" d="M29.294,48.931l-3.916-4.051-.011-.011a2.779,2.779,0,0,0-3.933,0l-1.788,1.788a2.105,2.105,0,0,1-2.979,0h0l-6.217-6.07a2.106,2.106,0,0,1,0-2.979l1.788-1.788a2.784,2.784,0,0,0,0-3.933L8.3,27.952a2.784,2.784,0,0,0-3.933,0L3.06,29.263l-.119.119a10.022,10.022,0,0,0,0,14.183l10.746,10.6a10.022,10.022,0,0,0,14.168.014c.022-.02,1.411-1.3,1.432-1.32A2.784,2.784,0,0,0,29.294,48.931ZM5.682,29.263a.928.928,0,0,1,1.311,0L10.926,33.2a.926.926,0,0,1,0,1.311l-.655.655L5.027,29.918ZM15,52.852,4.252,42.253a8.169,8.169,0,0,1-.512-11l5.225,5.225A3.966,3.966,0,0,0,9.139,41.9l6.218,6.071a3.957,3.957,0,0,0,5.415.171L26,53.364A8.149,8.149,0,0,1,15,52.852Zm12.989-1.317-.623.574L22.09,46.834l.655-.655a.926.926,0,0,1,1.306,0l3.925,4.061A.928.928,0,0,1,27.988,51.535Z" transform="translate(-0.002 -27.139)" fill="#575757"/>
      </g>
    </g>
    <g id="Grupo_14952" data-name="Grupo 14952" transform="translate(14.959 0.02)">
      <g id="Grupo_14951" data-name="Grupo 14951">
        <path id="Trazado_8353" data-name="Trazado 8353" d="M242.948.02a.927.927,0,0,0,0,1.854,13.92,13.92,0,0,1,13.9,13.9.927.927,0,1,0,1.854,0A15.75,15.75,0,0,0,242.948.02Z" transform="translate(-242.021 -0.02)" fill="#575757"/>
      </g>
    </g>
    <g id="Grupo_14954" data-name="Grupo 14954" transform="translate(14.959 3.728)">
      <g id="Grupo_14953" data-name="Grupo 14953">
        <path id="Trazado_8354" data-name="Trazado 8354" d="M242.948,60.015a.927.927,0,0,0,0,1.854,10.208,10.208,0,0,1,10.2,10.2.927.927,0,0,0,1.854,0A12.064,12.064,0,0,0,242.948,60.015Z" transform="translate(-242.021 -60.015)" fill="#dd141d"/>
      </g>
    </g>
    <g id="Grupo_14956" data-name="Grupo 14956" transform="translate(14.959 7.436)">
      <g id="Grupo_14955" data-name="Grupo 14955">
        <path id="Trazado_8355" data-name="Trazado 8355" d="M242.948,120.011a.927.927,0,0,0,0,1.854,6.5,6.5,0,0,1,6.489,6.489.927.927,0,0,0,1.854,0A8.352,8.352,0,0,0,242.948,120.011Z" transform="translate(-242.021 -120.011)" fill="#575757"/>
      </g>
    </g>
    <g id="Grupo_14958" data-name="Grupo 14958" transform="translate(14.959 11.144)">
      <g id="Grupo_14957" data-name="Grupo 14957">
        <path id="Trazado_8356" data-name="Trazado 8356" d="M242.948,180.006a.927.927,0,0,0,0,1.854,2.784,2.784,0,0,1,2.781,2.781.927.927,0,1,0,1.854,0A4.64,4.64,0,0,0,242.948,180.006Z" transform="translate(-242.021 -180.006)" fill="#dd141d"/>
      </g>
    </g>
  </g>
</svg>
