<svg xmlns="http://www.w3.org/2000/svg" width="33.162" height="33.162" viewBox="0 0 33.162 33.162">
  <path id="Trazado_4192" data-name="Trazado 4192" d="M32.951,14.215V12.5s0-.007,0-.011a.543.543,0,0,0-.038-.186.43.43,0,0,0-.022-.045.57.57,0,0,0-.031-.064L26.226,2.247A.553.553,0,0,0,25.766,2H9.185a.55.55,0,0,0-.445.233c0,.006-.012.007-.015.013L2.093,12.2a.527.527,0,0,0-.031.064.49.49,0,0,0-.022.045A.544.544,0,0,0,2,12.491s0,.006,0,.01V25.766A2.767,2.767,0,0,0,4.764,28.53H17.476V32.4a2.767,2.767,0,0,0,2.764,2.764h9.949A2.764,2.764,0,0,0,32.9,32.9a2.764,2.764,0,0,0,2.262-2.713V16.923A2.769,2.769,0,0,0,32.951,14.215Zm-1.585-2.267H16.113l-5.9-8.843H25.47ZM9.185,3.549l5.6,8.4H3.585ZM3.105,25.766V13.054H15.265v14.37H12.5V19.686a.552.552,0,0,0-.553-.553H6.422a.552.552,0,0,0-.553.553v7.738H4.764A1.66,1.66,0,0,1,3.105,25.766Zm3.869,1.658V20.239H11.4v7.185Zm10.5-8.291v8.291H16.37V13.054H31.846v1.105h-9.4a2.764,2.764,0,0,0-2.713,2.262A2.764,2.764,0,0,0,17.476,19.134ZM31.846,32.4a1.66,1.66,0,0,1-1.658,1.658H20.239A1.66,1.66,0,0,1,18.581,32.4V19.134a1.66,1.66,0,0,1,1.658-1.658h7.738v3.316a.552.552,0,0,0,.553.553h3.316Zm-.782-12.159H29.082V18.257Zm2.992,9.949a1.656,1.656,0,0,1-1.105,1.556V20.792a.552.552,0,0,0-.162-.391l-3.867-3.867a.552.552,0,0,0-.392-.163H20.894a1.656,1.656,0,0,1,1.556-1.105H32.4a1.66,1.66,0,0,1,1.658,1.658Z" transform="translate(-2 -2)" fill="#575757"/>
</svg>
