<svg xmlns="http://www.w3.org/2000/svg" width="46" height="67" viewBox="0 0 46 67"><defs><clipPath id="pexja"><path fill="#fff" d="M13 27c0-.5.5-1 1-1s1 .5 1 1-.5 1-1 1-1-.5-1-1z"/></clipPath></defs><g><g><g><g><path fill="#fff" d="M13 27c0-.5.5-1 1-1s1 .5 1 1-.5 1-1 1-1-.5-1-1z"/><path fill="none" stroke="#707070" stroke-miterlimit="50" stroke-opacity=".3" stroke-width="2" d="M13 27c0-.5.5-1 1-1v0c.5 0 1 .5 1 1v0c0 .5-.5 1-1 1v0c-.5 0-1-.5-1-1z" clip-path="url(&quot;#pexja&quot;)"/></g><g><path fill="#dd141d" d="M13 26z"/></g></g><g><g/><g/><g/><g><path fill="#575757" d="M36.323 31.696H25.325a5.426 5.426 0 0 0-5.419 5.42v.786a5.426 5.426 0 0 0 5.42 5.42h5.757l-2.115 2.017c-1.625 1.233-2.503 3.875-2.503 5.762v4.15H11.14A1.941 1.941 0 0 1 9.2 53.31V5.263c0-1.068.87-1.938 1.939-1.938h23.248a1.94 1.94 0 0 1 1.936 1.938zM6.877 21.006H5.4a2.376 2.376 0 0 1-2.372-2.373 2.374 2.374 0 0 1 2.372-2.37h1.476zm0 8.725H5.4a2.374 2.374 0 0 1-2.372-2.37A2.374 2.374 0 0 1 5.4 24.988h1.476zm0 8.809H5.4a2.374 2.374 0 0 1-2.372-2.373A2.374 2.374 0 0 1 5.4 33.795h1.476zm0 8.806H5.4a2.374 2.374 0 0 1-2.372-2.37A2.374 2.374 0 0 1 5.4 42.603h1.476zm9.345 19.098v-4.568c0-.228-.066-.449-.19-.64l-2.418-3.662H27.63c.64 0 1.162-.52 1.162-1.162l-.005-.041.005-.04v-5.23c0-1.473.753-3.311 1.608-3.936L34.791 43l.005-.008c.105-.103.191-.225.253-.363l.007-.014c.054-.125.083-.265.09-.407l.003-.032.002-.017a1.12 1.12 0 0 0-.07-.387l-.013-.037a1.166 1.166 0 0 0-.23-.365l-.008-.015-.01-.005a1.133 1.133 0 0 0-.36-.255l-.014-.007a1.132 1.132 0 0 0-.41-.088l-.03-.003-.019-.005h-8.662a3.096 3.096 0 0 1-3.093-3.093v-.784a3.094 3.094 0 0 1 3.093-3.091h13.326c2.39 1.679 5.483 8.681 2.687 19.34v.008l-.003.005c-.213.85-.65 1.13-1.698 1.733l1.16 2.015c1.087-.625 2.318-1.339 2.788-3.16l.005-.01c3.682-12.61-1.137-21.206-4.94-22.576V5.262A4.267 4.267 0 0 0 34.386 1H11.139a4.267 4.267 0 0 0-4.262 4.262v8.969H5.4A4.408 4.408 0 0 0 1 18.633a4.406 4.406 0 0 0 3.853 4.365A4.406 4.406 0 0 0 1 27.363a4.408 4.408 0 0 0 4.402 4.402A4.409 4.409 0 0 0 1 36.17a4.409 4.409 0 0 0 4.402 4.404A4.408 4.408 0 0 0 1 44.976a4.409 4.409 0 0 0 4.402 4.405h1.476v3.93a4.265 4.265 0 0 0 3.94 4.249l3.082 4.666v4.218"/><path fill="none" stroke="#575757" stroke-miterlimit="50" stroke-width=".5" d="M36.323 31.696H25.325a5.426 5.426 0 0 0-5.419 5.42v.786a5.426 5.426 0 0 0 5.42 5.42h5.757l-2.115 2.017c-1.625 1.233-2.503 3.875-2.503 5.762v4.15H11.14A1.941 1.941 0 0 1 9.2 53.31V5.263c0-1.068.87-1.938 1.939-1.938h23.248a1.94 1.94 0 0 1 1.936 1.938zM6.877 21.006H5.4a2.376 2.376 0 0 1-2.372-2.373 2.374 2.374 0 0 1 2.372-2.37h1.476zm0 8.725H5.4a2.374 2.374 0 0 1-2.372-2.37A2.374 2.374 0 0 1 5.4 24.988h1.476zm0 8.809H5.4a2.374 2.374 0 0 1-2.372-2.373A2.374 2.374 0 0 1 5.4 33.795h1.476zm0 8.806H5.4a2.374 2.374 0 0 1-2.372-2.37A2.374 2.374 0 0 1 5.4 42.603h1.476zm9.345 19.098v-4.568c0-.228-.066-.449-.19-.64l-2.418-3.662H27.63c.64 0 1.162-.52 1.162-1.162l-.005-.041.005-.04v-5.23c0-1.473.753-3.311 1.608-3.936L34.791 43l.005-.008c.105-.103.191-.225.253-.363l.007-.014c.054-.125.083-.265.09-.407l.003-.032.002-.017a1.12 1.12 0 0 0-.07-.387l-.013-.037a1.166 1.166 0 0 0-.23-.365l-.008-.015-.01-.005a1.133 1.133 0 0 0-.36-.255l-.014-.007a1.132 1.132 0 0 0-.41-.088l-.03-.003-.019-.005h-8.662a3.096 3.096 0 0 1-3.093-3.093v-.784a3.094 3.094 0 0 1 3.093-3.091h13.326c2.39 1.679 5.483 8.681 2.687 19.34v.008l-.003.005c-.213.85-.65 1.13-1.698 1.733l1.16 2.015c1.087-.625 2.318-1.339 2.788-3.16l.005-.01c3.682-12.61-1.137-21.206-4.94-22.576V5.262A4.267 4.267 0 0 0 34.386 1H11.139a4.267 4.267 0 0 0-4.262 4.262v8.969H5.4A4.408 4.408 0 0 0 1 18.633a4.406 4.406 0 0 0 3.853 4.365A4.406 4.406 0 0 0 1 27.363a4.408 4.408 0 0 0 4.402 4.402A4.409 4.409 0 0 0 1 36.17a4.409 4.409 0 0 0 4.402 4.404A4.408 4.408 0 0 0 1 44.976a4.409 4.409 0 0 0 4.402 4.405h1.476v3.93a4.265 4.265 0 0 0 3.94 4.249l3.082 4.666v4.218"/></g><g><path fill="#575757" d="M34.522 8.444a2.95 2.95 0 0 0-2.947-2.949H13.95a2.95 2.95 0 0 0-2.946 2.949v41.338a2.95 2.95 0 0 0 2.946 2.95h9.848l.003-1.609h-9.85c-.741 0-1.341-.6-1.341-1.338V8.444c0-.74.602-1.34 1.34-1.34h17.625c.74 0 1.341.6 1.341 1.34v20.429h1.606z"/></g><g><path fill="#e10518" d="M22.178 19.959l-2.82-2.822 1.17-1.171 1.65 1.65 3.302-3.302 1.171 1.171zm.574-9.41a6.59 6.59 0 0 0 0 13.18 6.59 6.59 0 1 0 0-13.18z"/></g></g></g></g></svg>