<svg xmlns="http://www.w3.org/2000/svg" width="83" height="72" viewBox="0 0 83 72"><defs><clipPath id="g12ga"><path fill="#fff" d="M70.414 56.5c0-3.038 2.686-5.5 6-5.5s6 2.462 6 5.5-2.686 5.5-6 5.5-6-2.462-6-5.5z"/></clipPath></defs><g><g><g><g><g><g><path fill="#575757" d="M67.098 69.06H57.68a1.179 1.179 0 0 1-1.177-1.177c0-.648.529-1.177 1.177-1.177.226 0 .44.065.638.192A1.18 1.18 0 0 0 59.4 67c.356-.143.618-.452.704-.825a2.34 2.34 0 0 1 2.286-1.822 2.34 2.34 0 0 1 2.286 1.822c.086.373.349.682.704.825a1.18 1.18 0 0 0 1.08-.1c.766-.495 1.817.11 1.816.984a1.18 1.18 0 0 1-1.177 1.177zM47.086 21.975h-4.709v-7.062h4.709zm0 9.418h-4.709v-7.063h4.709zm0 9.417h-4.709v-7.063h4.709zm0 9.417h-4.709v-7.063h4.709zm0 9.417h-4.709V52.58h4.709zm0 9.418h-4.709v-7.063h4.709zm-7.063-47.087h-4.708v-7.062h4.708zm0 9.418h-4.708v-7.063h4.708zm0 9.417h-4.708v-7.063h4.708zm0 9.417h-4.708v-7.063h4.708zm0 9.417h-4.708V52.58h4.708zm0 9.418h-4.708v-7.063h4.708zM32.96 21.974h-4.708v-7.062h4.708zm0 9.418h-4.708v-7.063h4.708zm0 9.417h-4.708v-7.063h4.708zm0 9.417h-4.708v-7.063h4.708zm0 9.417h-4.708V52.58h4.708zm0 9.418h-4.708v-7.063h4.708zm-7.063-47.087H21.19v-7.062h4.708zm0 9.418H21.19v-7.063h4.708zm0 9.417H21.19v-7.063h4.708zm0 9.417H21.19v-7.063h4.708zm0 9.417H21.19V52.58h4.708zm0 9.418H21.19v-7.063h4.708zM49.44 52.58h4.709v7.062H49.44zm0-9.418h4.709v7.063H49.44zm0-9.417h4.709v7.063H49.44zm0-9.417h4.709v7.063H49.44zm0-9.417h4.709v7.062H49.44zm17.658 49.44c-.204 0-.406.018-.605.053a4.675 4.675 0 0 0-4.104-2.407 4.675 4.675 0 0 0-4.103 2.407 3.536 3.536 0 0 0-4.136 3.478c0 .415.084.807.217 1.178H49.44v-7.063h5.886c.65 0 1.177-.528 1.177-1.178V13.734c0-.65-.527-1.177-1.177-1.177H20.012c-.65 0-1.177.528-1.177 1.177v56.504c0 .65.527 1.177 1.177 1.177h47.086a3.536 3.536 0 0 0 3.531-3.532 3.536 3.536 0 0 0-3.531-3.531z"/></g><g><path fill="#575757" d="M2.354 58.466c0-5.864 1.575-12.949 3.532-12.949 1.956 0 3.531 7.085 3.531 12.95a3.536 3.536 0 0 1-3.531 3.53 3.536 3.536 0 0 1-3.532-3.53zm23.543-49.44V5.494h8.24c.65 0 1.177-.527 1.177-1.177V3.14h4.709v1.177c0 .65.527 1.177 1.177 1.177h8.24V7.85H29.43a1.178 1.178 0 0 0 0 2.354h29.428V59.03a1.178 1.178 0 0 0 2.355 0V9.026c0-.65-.528-1.177-1.177-1.177h-8.24V4.317c0-.65-.528-1.177-1.178-1.177h-8.24V1.963c0-.65-.527-1.177-1.177-1.177h-7.063c-.65 0-1.177.527-1.177 1.177V3.14h-8.24c-.65 0-1.177.527-1.177 1.177V7.85h-8.24c-.65 0-1.177.527-1.177 1.177V69.06H7.063v-4.827a5.896 5.896 0 0 0 4.708-5.767c0-.153-.067-15.303-5.885-15.303C.067 43.163 0 58.313 0 58.466a5.896 5.896 0 0 0 4.709 5.767v4.828H1.177a1.178 1.178 0 0 0 0 2.354h14.126c.65 0 1.177-.527 1.177-1.177V10.203h8.24c.65 0 1.177-.527 1.177-1.177z"/></g></g></g></g><g><g><g><g><path fill="#575757" d="M75.177 57.292c0 .57-.463 1.032-1.033 1.032H62.125c-.57 0-1.032-.462-1.032-1.032v-14.52c0-.572.462-1.033 1.032-1.033h1.435c0 .454.368.822.822.822h7.504a.822.822 0 0 0 .822-.822h1.436c.57 0 1.033.462 1.033 1.032zM66.75 37.458c0-.674.548-1.224 1.221-1.224.674 0 1.222.55 1.222 1.224 0 .386-.18.717-.46.957H67.21c-.28-.24-.46-.571-.46-.957zm5.96 2.601v-.538c0-.612-.496-1.107-1.107-1.107h-1.817c.152-.274.238-.612.238-.956a2.056 2.056 0 0 0-2.052-2.054 2.054 2.054 0 0 0-1.813 3.01h-1.49c-.612 0-1.107.495-1.107 1.107v.538h-2.47c-.927 0-1.678.752-1.678 1.68V58.29c0 .927.751 1.68 1.679 1.68h14.084a1.68 1.68 0 0 0 1.679-1.68V41.74a1.68 1.68 0 0 0-1.68-1.68z"/></g><g><path fill="#dd141d" d="M62.73 45.466a1.459 1.459 0 1 1 2.917 0 1.459 1.459 0 0 1-2.917 0z"/></g><g><path fill="#575757" d="M72.488 44.652h-4.975a.824.824 0 0 0-.83.822c0 .458.372.823.83.823h4.977a.823.823 0 1 0-.002-1.645z"/></g><g><path fill="#dd141d" d="M62.73 49.604a1.459 1.459 0 1 1 2.917 0 1.459 1.459 0 0 1-2.917 0z"/></g><g><path fill="#575757" d="M72.488 48.764h-4.975a.84.84 0 0 0 0 1.68h4.977a.837.837 0 0 0 .828-.84.839.839 0 0 0-.83-.84z"/></g><g><path fill="#dd141d" d="M62.73 54.027a1.458 1.458 0 1 1 2.916 0 1.458 1.458 0 0 1-2.916 0z"/></g><g><path fill="#575757" d="M72.488 53.184h-4.975a.84.84 0 0 0 0 1.68h4.977a.837.837 0 0 0 .828-.84.839.839 0 0 0-.83-.84z"/></g></g></g><g><path fill="#ededed" d="M70.414 56.5c0-3.038 2.686-5.5 6-5.5s6 2.462 6 5.5-2.686 5.5-6 5.5-6-2.462-6-5.5z"/><path fill="none" stroke="#ededed" stroke-miterlimit="50" stroke-width="2" d="M70.414 56.5c0-3.038 2.686-5.5 6-5.5s6 2.462 6 5.5-2.686 5.5-6 5.5-6-2.462-6-5.5z" clip-path="url(&quot;#g12ga&quot;)"/></g><g><g><g><g><path fill="#575757" d="M80.347 55.225a.415.415 0 0 0-.415.415v.418c0 1.09-.426 2.115-1.197 2.886a4.056 4.056 0 0 1-2.885 1.194h-.003a4.087 4.087 0 0 1-4.08-4.085c0-1.09.426-2.115 1.197-2.886a4.056 4.056 0 0 1 2.885-1.194h.003c.575 0 1.134.119 1.66.353a.415.415 0 1 0 .337-.758 4.882 4.882 0 0 0-1.997-.425h-.003c-1.31 0-2.544.51-3.471 1.437a4.88 4.88 0 0 0-1.441 3.473 4.88 4.88 0 0 0 1.437 3.474 4.88 4.88 0 0 0 3.473 1.441h.003c1.31 0 2.544-.51 3.471-1.437a4.88 4.88 0 0 0 1.441-3.473v-.418a.415.415 0 0 0-.415-.415z"/></g></g></g><g><g><g><path fill="#dd141d" d="M81.09 51.716a.415.415 0 0 0-.586 0l-4.655 4.655-1.055-1.056a.415.415 0 0 0-.587.587l1.349 1.35a.414.414 0 0 0 .587 0l4.948-4.949a.415.415 0 0 0 0-.587z"/></g></g></g></g></g></g></g></svg>