<svg xmlns="http://www.w3.org/2000/svg" width="82" height="60" viewBox="0 0 82 60"><g><g><g><g><g><g><g><path fill="#dd141d" d="M31.655 43.954a.893.893 0 1 0-1.093.63.893.893 0 0 0 1.093-.63z"/></g></g></g><g><g><g><path fill="#575757" d="M2.07 52.288a1.782 1.782 0 0 1 .652-2.435l.001-.002 9.703-5.6a23.373 23.373 0 0 0 1.782 3.092L4.506 52.94a1.782 1.782 0 0 1-2.436-.652H2.07zm15.006-10.72a17.876 17.876 0 0 0 1.782 3.09l-3.1 1.788a21.651 21.651 0 0 1-1.783-3.09zm1.265-1.599c-3.17-8.292.984-17.584 9.276-20.753 8.292-3.17 17.584.984 20.753 9.277 3.17 8.292-.984 17.583-9.277 20.753a16.073 16.073 0 0 1-20.752-9.277zM5.398 54.487l14.585-8.418a17.68 17.68 0 0 0 8.732 5.407c9.517 2.553 19.3-3.094 21.852-12.612 2.552-9.517-3.094-19.302-12.612-21.853-9.517-2.552-19.3 3.095-21.853 12.611a17.682 17.682 0 0 0 .313 10.265l-4.03 2.328-10.553 6.09a3.568 3.568 0 1 0 3.566 6.18z"/></g></g></g><g><g><g><path fill="#dd141d" d="M21.271 31.013c1.785-6.664 8.633-10.619 15.296-8.834 6.663 1.784 10.618 8.631 8.834 15.295-1.785 6.663-8.633 10.618-15.296 8.833l-.008-.002c-6.653-1.794-10.6-8.634-8.826-15.292zm25.849 6.93c2.042-7.617-2.476-15.446-10.092-17.488-7.617-2.042-15.446 2.476-17.488 10.093-2.042 7.616 2.476 15.445 10.093 17.487 7.615 2.035 15.44-2.481 17.487-10.092z"/></g></g></g><g><g><g><path fill="#dd141d" d="M34.446 44.89a10.7 10.7 0 0 0 5.776-2.456 10.63 10.63 0 0 0 3.453-5.42.894.894 0 0 0-1.723-.461 8.984 8.984 0 0 1-7.694 6.564.892.892 0 1 0 .188 1.773z"/></g></g></g></g></g><g><g><path fill="#575757" d="M64.28 45.924v-9.295h4.181l.007 9.295zM63.121 34.31c-.64 0-1.16.519-1.16 1.16v11.613c0 .64.52 1.16 1.16 1.16h6.503c.641 0 1.16-.52 1.16-1.16V35.47a1.16 1.16 0 0 0-1.157-1.16z"/></g><g><path fill="#575757" d="M73.686 43.056a1.16 1.16 0 1 0 1.641 1.637 1.16 1.16 0 0 0-1.64-1.637z"/></g><g><path fill="#575757" d="M42.11 13.296L52.205 3.2l25.774 25.77h-4.6L53.025 8.62a1.159 1.159 0 0 0-1.638-.003l-.003.003L40.284 19.72c.726.344 1.426.741 2.094 1.19l9.83-9.827 19.867 19.869c.218.219.514.341.822.341h.445v8.711a1.16 1.16 0 1 0 2.319.004v-8.714h5.116a1.16 1.16 0 0 0 .822-1.983L53.026.742a1.156 1.156 0 0 0-1.638-.003l-.003.002-10.917 10.917a1.159 1.159 0 1 0 1.642 1.638z"/></g><g><path fill="#575757" d="M50.823 47.906c.217-.216.339-.51.339-.817a1.16 1.16 0 1 0-.339.817z"/></g><g><path fill="#575757" d="M42.315 47.595c-.347.23-.707.443-1.074.648h.046c.454 0 .837-.269 1.028-.648z"/></g><g><path fill="#575757" d="M49.186 24.826a3.02 3.02 0 1 1 6.04 0 3.02 3.02 0 0 1-6.04 0zm8.361 0a5.35 5.35 0 0 0-5.342-5.342 5.342 5.342 0 0 0-5.342 5.342c0 .252.041.493.075.736.58.907 1.077 1.885 1.477 2.93.017.045.027.091.044.137a5.32 5.32 0 0 0 3.746 1.54 5.343 5.343 0 0 0 5.342-5.343z"/></g><g><path fill="#575757" d="M38.745 16.665a1.16 1.16 0 0 0-1.643-1.637 1.159 1.159 0 0 0 1.643 1.637z"/></g><g><path fill="#575757" d="M35.72 18.332c-.04-.057-.064-.12-.113-.171a1.162 1.162 0 0 0-1.643 0l-.002.002c.59.022 1.177.084 1.757.17z"/></g><g><path fill="#575757" d="M80.78 57.54H75.66v-9.173a1.16 1.16 0 0 0-2.319-.003v9.176H59.407V35.47c0-.641-.52-1.16-1.16-1.16h-8.786a15.94 15.94 0 0 1-.177 2.326h7.8V57.54H47.33V42.246a16.086 16.086 0 0 1-2.322 3.083V57.54H31.068v-7.417a16.308 16.308 0 0 1-2.322-.519v7.936h-5.112a1.16 1.16 0 0 0 0 2.32h57.143a1.16 1.16 0 0 0 .002-2.32z"/></g></g></g></g></svg>