<svg xmlns="http://www.w3.org/2000/svg" width="38.193" height="36.662" viewBox="0 0 38.193 36.662">
  <g id="XMLID_386_" transform="translate(0 0)">
    <path id="XMLID_389_" d="M38.119,30.357a15.056,15.056,0,0,0-11.708-13.2v-1.9a2.536,2.536,0,0,0-.612-5H20.428a2.536,2.536,0,0,0-.612,5v1.9A14.978,14.978,0,0,0,12.47,21.2,15.14,15.14,0,0,0,11.2,22.638l-.057,0H5.831a.746.746,0,1,0,0,1.492h4.357a14.954,14.954,0,0,0-1.324,2.867H.746a.746.746,0,1,0,0,1.492h7.7a15.167,15.167,0,0,0-.37,2.867h-3.3a.746.746,0,0,0,0,1.492H8.1a15.145,15.145,0,0,0,.466,2.867H3.73a.746.746,0,0,0,0,1.492H9.039a15.067,15.067,0,0,0,12.6,9.646q.739.073,1.478.073a15.1,15.1,0,0,0,8.223-2.43.746.746,0,1,0-.814-1.25,13.577,13.577,0,1,1,4-4,.746.746,0,1,0,1.251.813A15.117,15.117,0,0,0,38.119,30.357ZM19.384,12.8a1.046,1.046,0,0,1,1.044-1.044H25.8a1.044,1.044,0,1,1,0,2.089H20.428A1.046,1.046,0,0,1,19.384,12.8ZM21.308,16.9V15.335h3.611V16.9A15.2,15.2,0,0,0,21.308,16.9Z" transform="translate(0 -10.262)" fill="#575757"/>
    <path id="XMLID_391_" d="M436.516,425.5a.746.746,0,1,0,.527.219A.75.75,0,0,0,436.516,425.5Z" transform="translate(-403.263 -394.525)" fill="#575757"/>
    <path id="XMLID_394_" d="M166.444,144.609a11.572,11.572,0,1,0,11.572,11.572A11.585,11.585,0,0,0,166.444,144.609Zm0,21.652a10.08,10.08,0,1,1,10.08-10.08A10.092,10.092,0,0,1,166.444,166.261Z" transform="translate(-143.319 -134.587)" fill="#575757"/>
    <path id="XMLID_397_" d="M265.706,219.63l-3.695,3.695a2.312,2.312,0,0,0-2.048,0l-1.654-1.654a.746.746,0,0,0-1.055,1.055l1.654,1.654a2.318,2.318,0,1,0,4.158,0l3.586-3.586h0l.108-.108a.746.746,0,0,0-1.055-1.055Zm-4.719,6.6a.826.826,0,1,1,.826-.826A.827.827,0,0,1,260.987,226.229Z" transform="translate(-237.862 -203.809)" fill="#dd141d"/>
    <path id="XMLID_398_" d="M399.092,289.86H398.4a.746.746,0,0,0,0,1.492h.691a.746.746,0,0,0,0-1.492Z" transform="translate(-367.991 -269.003)" fill="#575757"/>
    <path id="XMLID_399_" d="M194.519,289.616h-.691a.746.746,0,1,0,0,1.492h.691a.746.746,0,1,0,0-1.492Z" transform="translate(-178.679 -268.777)" fill="#575757"/>
    <path id="XMLID_400_" d="M300.869,185a.746.746,0,0,0,.746-.746v-.691a.746.746,0,1,0-1.492,0v.691A.746.746,0,0,0,300.869,185Z" transform="translate(-277.735 -169.947)" fill="#575757"/>
    <path id="XMLID_424_" d="M300.625,387.393a.746.746,0,0,0-.746.746v.691a.746.746,0,1,0,1.492,0v-.691A.746.746,0,0,0,300.625,387.393Z" transform="translate(-277.509 -359.26)" fill="#575757"/>
    <path id="XMLID_425_" d="M.746,351.44a.746.746,0,1,0,.527,1.273.746.746,0,0,0-.527-1.273Z" transform="translate(0 -325.989)" fill="#575757"/>
  </g>
</svg>
